<svg width="22" height="20" viewBox="0 0 22 20" fill="none" xmlns="http://www.w3.org/2000/svg">
<path d="M21.5386 10.8828C22.1525 10.3945 22.1525 9.60156 21.5386 9.11328L13.6815 2.86328C13.0677 2.375 12.0708 2.375 11.4569 2.86328C10.8431 3.35156 10.8431 4.14453 11.4569 4.63281L16.6378 8.75L1.57168 8.75C0.702482 8.75 0.000249863 9.30859 0.000249863 10C0.000249863 10.6914 0.702482 11.25 1.57168 11.25L16.6328 11.25L11.4619 15.3672C10.848 15.8555 10.848 16.6484 11.4619 17.1367C12.0757 17.625 13.0726 17.625 13.6864 17.1367L21.5436 10.8867L21.5386 10.8828Z" fill="white"/>
</svg>
