<svg width="171" height="57" viewBox="0 0 171 57" fill="none" xmlns="http://www.w3.org/2000/svg">
<path d="M22.7911 34.3393H10.5122L8.1688 39.9927H1.89062L13.6805 13.5982H19.725L31.5587 39.9927H25.1345L22.7911 34.3393ZM20.8639 29.6986L16.6662 19.5939L12.4759 29.6986H20.8639Z" fill="white"/>
<path d="M49.6135 26.3765H55.2054V37.0859C53.7691 38.1696 52.1047 39.0001 50.2121 39.5775C48.3232 40.1548 46.4233 40.4444 44.5106 40.4444C41.7658 40.4444 39.2946 39.8616 37.1009 38.6959C34.9109 37.5267 33.1917 35.9039 31.947 33.8294C30.7005 31.7567 30.0781 29.4109 30.0781 26.7918C30.0781 24.18 30.7005 21.836 31.947 19.7615C33.1917 17.6889 34.9218 16.0679 37.1374 14.9022C39.3567 13.7329 41.8534 13.1465 44.6274 13.1465C46.9434 13.1465 49.0459 13.5381 50.9348 14.3194C52.8219 15.0971 54.4097 16.2263 55.6945 17.7071L51.767 21.3278C49.8781 19.3426 47.5986 18.3482 44.9267 18.3482C43.2367 18.3482 41.7384 18.7015 40.4298 19.4045C39.1194 20.1094 38.1011 21.102 37.371 22.3842C36.641 23.6664 36.276 25.1362 36.276 26.7918C36.276 28.4292 36.641 29.888 37.371 31.1703C38.1011 32.4525 39.1121 33.4542 40.4079 34.1718C41.7074 34.8857 43.1893 35.2427 44.8537 35.2427C46.6149 35.2427 48.2009 34.8675 49.6135 34.1135V26.3765Z" fill="white"/>
<path d="M78.7798 35.0897V39.9927H58.3027V13.5982H78.2907V18.5012H64.3838V24.2274H76.6627V28.9847H64.3838V35.0897H78.7798Z" fill="white"/>
<path d="M105.343 13.5982V39.9927H100.313L87.1286 23.9651V39.9927H81.084V13.5982H86.143L99.2907 29.6258V13.5982H105.343Z" fill="white"/>
<path d="M109.041 13.5982H121.057C123.928 13.5982 126.463 14.1446 128.664 15.2373C130.869 16.3301 132.581 17.871 133.803 19.8562C135.03 21.8433 135.643 24.1545 135.643 26.7918C135.643 29.4345 135.03 31.7494 133.803 33.7347C132.581 35.7217 130.869 37.2607 128.664 38.3535C126.463 39.4463 123.928 39.9927 121.057 39.9927H109.041V13.5982ZM120.751 34.9804C123.397 34.9804 125.507 34.2446 127.08 32.773C128.657 31.3014 129.445 29.3089 129.445 26.7918C129.445 24.282 128.657 22.2895 127.08 20.8179C125.507 19.3462 123.397 18.6104 120.751 18.6104H115.159V34.9804H120.751Z" fill="white"/>
<mask id="mask0_488_65" style="mask-type:luminance" maskUnits="userSpaceOnUse" x="135" y="12" width="35" height="29">
<path d="M135.982 12.1901H169.131V40.8303H135.982V12.1901Z" fill="white"/>
</mask>
<g mask="url(#mask0_488_65)">
<path d="M167.467 16.3063C165.816 13.7583 162.693 12.1901 159.607 12.3577C156.694 12.5161 153.925 14.2154 152.489 16.6833C151.051 14.2154 148.282 12.5161 145.37 12.3577C142.283 12.1901 139.161 13.7583 137.511 16.3063C136.441 17.9564 135.981 19.9471 136.069 21.8959C136.299 27.0921 140.031 31.4105 143.76 34.7799C146.384 37.1531 149.326 39.193 152.489 40.8267C155.652 39.193 158.592 37.1531 161.216 34.7799C164.945 31.4105 168.679 27.0921 168.909 21.8959C168.995 19.9471 168.535 17.9564 167.467 16.3063Z" fill="white"/>
</g>
<mask id="mask1_488_65" style="mask-type:luminance" maskUnits="userSpaceOnUse" x="146" y="23" width="13" height="6">
<path d="M146.469 23.3129H158.93V28.4417H146.469V23.3129Z" fill="white"/>
</mask>
<g mask="url(#mask1_488_65)">
<path d="M158.938 23.577V27.9846H146.469V23.577H158.938Z" fill="#4BC997"/>
</g>
<mask id="mask2_488_65" style="mask-type:luminance" maskUnits="userSpaceOnUse" x="150" y="19" width="6" height="13">
<path d="M150.441 19.5592H155.114V31.9951H150.441V19.5592Z" fill="white"/>
</mask>
<g mask="url(#mask2_488_65)">
<path d="M150.494 19.5592H154.911V32.0024H150.494V19.5592Z" fill="#4BC997"/>
</g>
</svg>
