<?xml version="1.0" standalone="no"?>
<!DOCTYPE svg PUBLIC "-//W3C//DTD SVG 20010904//EN"
 "http://www.w3.org/TR/2001/REC-SVG-20010904/DTD/svg10.dtd">
<svg version="1.0" xmlns="http://www.w3.org/2000/svg"
 width="524.000000pt" height="432.000000pt" viewBox="0 0 524.000000 432.000000"
 preserveAspectRatio="xMidYMid meet">

<g transform="translate(0.000000,432.000000) scale(0.100000,-0.100000)"
fill="#000000" stroke="none">
<path d="M3660 4160 c0 -6 26 -10 65 -10 l65 0 0 -55 0 -54 -62 -4 -63 -3 68
-2 68 -2 -3 68 -3 67 -67 3 c-43 2 -68 -1 -68 -8z"/>
<path d="M5005 4100 c9 -16 19 -30 23 -30 4 0 16 14 25 30 l18 30 -41 0 -41 0
16 -30z"/>
<path d="M3870 4075 c0 -32 2 -35 30 -35 28 0 30 3 30 35 0 19 -4 35 -10 35
-5 0 -10 -13 -10 -30 0 -16 -4 -30 -10 -30 -5 0 -10 14 -10 30 0 17 -4 30 -10
30 -5 0 -10 -16 -10 -35z"/>
<path d="M3944 4099 c-4 -7 4 -20 17 -31 l24 -20 -22 5 c-13 3 -23 1 -23 -4 0
-16 49 -9 59 9 10 16 10 16 11 0 0 -13 8 -18 30 -18 28 0 30 3 30 35 0 19 -4
35 -10 35 -5 0 -10 -11 -10 -24 0 -14 -4 -28 -10 -31 -6 -4 -10 7 -10 24 0 29
-2 31 -39 31 -22 0 -43 -5 -47 -11z m51 -9 c3 -5 -1 -10 -9 -10 -9 0 -16 5
-16 10 0 6 4 10 9 10 6 0 13 -4 16 -10z"/>
<path d="M4080 4102 c0 -6 9 -8 20 -5 11 3 20 1 20 -5 0 -5 -9 -12 -20 -15
-33 -9 -25 -37 11 -37 28 0 30 2 27 33 -2 27 -8 33 -30 35 -16 2 -28 -1 -28
-6z m40 -42 c0 -5 -4 -10 -10 -10 -5 0 -10 5 -10 10 0 6 5 10 10 10 6 0 10 -4
10 -10z"/>
<path d="M4160 4075 c0 -19 5 -35 10 -35 6 0 10 11 10 25 0 14 5 25 10 25 6 0
10 5 10 10 0 6 -9 10 -20 10 -16 0 -20 -7 -20 -35z"/>
<path d="M4210 4075 c0 -19 5 -35 10 -35 6 0 10 16 10 35 0 19 -4 35 -10 35
-5 0 -10 -16 -10 -35z"/>
<path d="M4244 4096 c-17 -46 31 -76 58 -37 13 19 16 19 34 5 18 -15 18 -15
-3 -11 -13 3 -23 1 -23 -5 0 -17 55 -4 58 15 2 10 -3 17 -12 17 -9 0 -16 5
-16 11 0 6 7 9 15 5 8 -3 15 -1 15 4 0 14 -43 13 -57 -1 -8 -8 -13 -8 -17 0
-10 16 -46 13 -52 -3z m38 -8 c6 -17 -1 -38 -13 -38 -5 0 -9 11 -9 25 0 26 14
34 22 13z"/>
<path d="M3830 3895 c0 -8 -6 -15 -14 -15 -8 0 -16 -7 -20 -15 -8 -23 4 -45
25 -45 16 0 19 8 19 45 0 25 -2 45 -5 45 -3 0 -5 -7 -5 -15z m0 -45 c0 -11 -4
-20 -9 -20 -14 0 -23 18 -16 30 10 17 25 11 25 -10z"/>
<path d="M4305 3860 c0 -22 5 -40 10 -40 6 0 10 18 10 40 0 22 -4 40 -10 40
-5 0 -10 -18 -10 -40z"/>
<path d="M4347 3894 c-10 -11 -9 -26 3 -19 5 3 16 -8 25 -25 8 -16 18 -30 20
-30 3 0 4 19 4 43 -1 39 -2 40 -9 12 -4 -16 -8 -25 -9 -19 -2 18 -26 45 -34
38z"/>
<path d="M4423 3893 c12 -3 17 -16 19 -41 l1 -37 4 35 c3 19 10 38 16 42 7 4
-4 7 -23 7 -19 -1 -27 -3 -17 -6z"/>
<path d="M3772 3850 c0 -19 2 -27 5 -17 2 9 2 25 0 35 -3 9 -5 1 -5 -18z"/>
<path d="M3913 3855 c2 -23 7 -31 25 -33 19 -3 22 1 21 30 -2 31 -2 31 -6 5
-5 -33 -24 -31 -35 4 -6 22 -7 21 -5 -6z"/>
<path d="M3980 3863 c0 -10 4 -14 8 -8 4 6 11 13 16 18 5 4 2 7 -7 7 -10 0
-17 -8 -17 -17z"/>
<path d="M4031 3853 c-1 -27 3 -33 19 -33 16 0 20 6 19 33 -2 30 -2 30 -6 5
-2 -16 -8 -28 -13 -28 -5 0 -11 12 -13 28 -4 25 -4 25 -6 -5z"/>
<path d="M4104 3872 c18 -8 18 -9 3 -15 -24 -9 -21 -37 4 -37 16 0 20 5 17 27
-2 19 -9 29 -23 30 -19 3 -19 3 -1 -5z m16 -32 c0 -5 -4 -10 -10 -10 -5 0 -10
5 -10 10 0 6 5 10 10 10 6 0 10 -4 10 -10z"/>
<path d="M4141 3848 c1 -22 3 -26 6 -13 3 11 10 26 15 33 8 9 6 12 -6 12 -12
0 -16 -9 -15 -32z"/>
<path d="M4182 3850 c0 -19 2 -27 5 -17 2 9 2 25 0 35 -3 9 -5 1 -5 -18z"/>
<path d="M4214 3865 c-4 -8 -3 -22 0 -31 7 -17 28 -15 32 4 1 7 0 8 -3 2 -8
-18 -23 -11 -23 11 0 15 5 19 16 15 8 -3 12 -2 9 4 -9 15 -25 12 -31 -5z"/>
<path d="M3992 3835 c-11 -12 -10 -15 3 -15 8 0 15 7 15 15 0 18 -2 18 -18 0z"/>
<path d="M3863 3803 c9 -2 25 -2 35 0 9 3 1 5 -18 5 -19 0 -27 -2 -17 -5z"/>
<path d="M4117 3673 c-4 -3 -6 -25 -6 -47 2 -30 3 -34 6 -13 2 15 10 27 16 27
7 0 6 4 -3 10 -13 9 -13 11 0 20 8 5 10 10 4 10 -6 0 -14 -3 -17 -7z"/>
<path d="M4663 3665 c-3 -9 -3 -18 -1 -21 3 -3 8 4 11 16 6 23 -1 27 -10 5z"/>
<path d="M4826 3667 c3 -10 9 -15 12 -12 3 3 0 11 -7 18 -10 9 -11 8 -5 -6z"/>
<path d="M170 3660 c0 -8 21 -11 65 -8 l65 3 0 -57 0 -57 -62 -4 -63 -3 68 -2
68 -2 -3 68 -3 67 -67 3 c-46 2 -68 -1 -68 -8z"/>
<path d="M4181 3654 c0 -11 3 -14 6 -6 3 7 2 16 -1 19 -3 4 -6 -2 -5 -13z"/>
<path d="M4252 3633 c-6 -20 -9 -39 -7 -42 3 -2 5 1 5 7 0 7 9 12 20 12 11 0
20 -5 20 -12 0 -6 3 -9 6 -5 8 7 -15 77 -25 77 -4 0 -13 -17 -19 -37z m24 -10
c-10 -10 -19 5 -10 18 6 11 8 11 12 0 2 -7 1 -15 -2 -18z"/>
<path d="M4310 3662 c0 -6 9 -8 20 -5 14 4 20 0 20 -12 0 -12 -6 -16 -20 -12
-13 3 -20 0 -20 -10 0 -8 5 -11 11 -8 5 4 20 -1 31 -12 14 -11 18 -12 12 -3
-5 8 -9 26 -9 40 0 18 -6 26 -22 28 -13 2 -23 -1 -23 -6z"/>
<path d="M4390 3655 c-15 -18 -10 -45 12 -59 12 -7 21 -7 28 0 8 8 4 10 -12
10 -18 -1 -23 4 -23 24 0 19 5 25 22 24 12 0 20 3 17 8 -8 13 -30 9 -44 -7z"/>
<path d="M4453 3630 c0 -25 2 -35 4 -23 2 13 13 24 26 26 l22 4 -22 2 c-12 0
-24 9 -26 19 -3 9 -5 -3 -4 -28z"/>
<path d="M4530 3635 c-7 -20 -9 -39 -6 -42 3 -4 6 -1 6 5 0 7 9 12 21 12 16 0
19 4 14 23 -12 39 -23 40 -35 2z m24 0 c3 -8 1 -15 -4 -15 -6 0 -10 7 -10 15
0 8 2 15 4 15 2 0 6 -7 10 -15z"/>
<path d="M4591 3628 c1 -24 3 -35 6 -25 5 21 22 22 29 2 4 -8 11 -15 18 -15 6
0 -1 12 -16 25 -27 23 -36 45 -20 45 4 0 14 -6 21 -12 11 -11 13 -10 9 2 -3 8
-14 16 -26 18 -20 3 -22 -1 -21 -40z"/>
<path d="M4710 3660 c-10 -6 -11 -10 -2 -10 6 0 12 -11 12 -24 0 -13 -6 -27
-12 -29 -7 -3 -4 -6 7 -6 18 -1 20 4 17 39 -2 22 -5 40 -6 40 0 0 -8 -5 -16
-10z"/>
<path d="M4770 3660 c-10 -6 -11 -10 -2 -10 6 0 12 -11 12 -24 0 -13 -6 -27
-12 -29 -7 -3 -4 -6 7 -6 18 -1 20 4 17 39 -2 22 -5 40 -6 40 0 0 -8 -5 -16
-10z"/>
<path d="M3771 3623 c-1 -27 3 -33 19 -33 16 0 20 6 19 33 -2 30 -2 30 -6 5
-2 -16 -8 -28 -13 -28 -5 0 -11 12 -13 28 -4 25 -4 25 -6 -5z"/>
<path d="M3834 3639 c-4 -7 1 -16 12 -22 17 -10 17 -11 -1 -18 -16 -6 -17 -8
-3 -8 25 -1 33 20 12 32 -17 10 -17 11 1 18 16 6 17 8 3 8 -9 1 -20 -4 -24
-10z"/>
<path d="M3881 3623 c-1 -27 3 -33 19 -33 16 0 20 6 19 33 -2 30 -2 30 -6 5
-2 -16 -8 -28 -13 -28 -5 0 -11 12 -13 28 -4 25 -4 25 -6 -5z"/>
<path d="M4004 3635 c-9 -22 3 -45 23 -45 15 0 15 2 -3 15 -19 15 -19 15 0 30
18 13 18 15 3 15 -10 0 -20 -7 -23 -15z"/>
<path d="M4050 3608 c0 -24 4 -38 8 -32 4 6 15 13 25 17 26 10 18 51 -10 55
-21 3 -23 -1 -23 -40z m40 18 c0 -16 -18 -31 -27 -22 -8 8 5 36 17 36 5 0 10
-6 10 -14z"/>
<path d="M4215 3629 c-6 -17 -9 -19 -16 -8 -5 8 -9 10 -9 4 0 -5 4 -17 10 -25
7 -11 11 -9 20 14 6 16 9 31 6 33 -2 3 -7 -5 -11 -18z"/>
<path d="M610 3625 c0 -8 -6 -15 -14 -15 -21 0 -38 -27 -31 -50 4 -14 15 -20
36 -20 28 0 29 1 29 50 0 28 -4 50 -10 50 -5 0 -10 -7 -10 -15z m0 -50 c0 -26
-14 -33 -25 -15 -9 14 1 40 15 40 5 0 10 -11 10 -25z"/>
<path d="M760 3625 c0 -8 -9 -15 -20 -15 -12 0 -22 -9 -26 -24 -8 -34 2 -46
37 -46 28 0 29 1 29 50 0 28 -4 50 -10 50 -5 0 -10 -7 -10 -15z m0 -44 c0 -23
-16 -36 -25 -21 -9 14 1 40 15 40 5 0 10 -9 10 -19z"/>
<path d="M4841 3624 c0 -11 3 -14 6 -6 3 7 2 16 -1 19 -3 4 -6 -2 -5 -13z"/>
<path d="M1607 3600 c9 -16 20 -30 23 -30 3 0 14 14 23 30 l18 30 -41 0 -41 0
18 -30z"/>
<path d="M380 3575 c0 -32 2 -35 30 -35 28 0 30 3 30 35 0 19 -4 35 -10 35 -5
0 -10 -13 -10 -30 0 -16 -4 -30 -10 -30 -5 0 -10 14 -10 30 0 17 -4 30 -10 30
-5 0 -10 -16 -10 -35z"/>
<path d="M460 3576 c0 -20 5 -36 10 -36 6 0 10 14 10 30 0 17 5 30 10 30 6 0
10 -13 10 -30 0 -16 5 -30 11 -30 6 0 9 14 7 33 -2 27 -8 33 -30 35 -26 3 -28
1 -28 -32z"/>
<path d="M530 3575 c0 -19 5 -35 10 -35 6 0 10 16 10 35 0 19 -4 35 -10 35 -5
0 -10 -16 -10 -35z"/>
<path d="M640 3602 c0 -6 9 -8 20 -5 11 3 20 1 20 -5 0 -5 -9 -12 -20 -15 -33
-9 -25 -37 11 -37 28 0 30 2 27 33 -2 27 -8 33 -30 35 -16 2 -28 -1 -28 -6z
m40 -42 c0 -5 -4 -10 -10 -10 -5 0 -10 5 -10 10 0 6 5 10 10 10 6 0 10 -4 10
-10z"/>
<path d="M794 3596 c-14 -38 0 -51 57 -54 45 -2 58 0 63 13 4 12 0 19 -14 22
-11 3 -20 10 -20 15 0 5 10 6 21 3 15 -5 19 -4 15 4 -9 14 -43 14 -52 0 -4 -8
-9 -8 -17 0 -16 16 -47 14 -53 -3z m36 -6 c0 -5 -4 -10 -10 -10 -5 0 -10 5
-10 10 0 6 5 10 10 10 6 0 10 -4 10 -10z m60 -29 c0 -3 -18 -7 -40 -7 -42 -2
-55 12 -17 18 26 4 57 -2 57 -11z"/>
<path d="M4660 3596 c0 -8 4 -17 9 -20 5 -4 7 3 4 14 -6 23 -13 26 -13 6z"/>
<path d="M4826 3583 c-6 -14 -5 -15 5 -6 7 7 10 15 7 18 -3 3 -9 -2 -12 -12z"/>
<path d="M3943 3573 c9 -2 25 -2 35 0 9 3 1 5 -18 5 -19 0 -27 -2 -17 -5z"/>
<path d="M3530 3445 l-45 -24 -407 -1 -408 0 0 -155 0 -155 -459 0 c-253 0
-462 -3 -464 -7 -3 -5 206 -7 464 -5 l469 2 0 155 0 155 410 0 c396 0 412 -1
452 -21 32 -16 43 -18 52 -8 8 9 8 10 -1 5 -6 -3 -24 -1 -39 6 l-28 13 34 6
c34 6 34 6 -10 8 l-45 3 50 24 c28 13 43 24 35 23 -8 0 -35 -11 -60 -24z"/>
<path d="M4792 3438 c-18 -18 -15 -74 6 -89 14 -11 15 -11 5 1 -16 18 -17 72
-1 88 7 7 10 12 7 12 -3 0 -10 -5 -17 -12z"/>
<path d="M5008 3440 c6 -8 12 -28 12 -45 0 -17 -6 -37 -12 -45 -11 -12 -10
-12 5 -1 10 8 17 27 17 46 0 19 -7 38 -17 46 -15 11 -16 11 -5 -1z"/>
<path d="M4304 3427 c4 -11 9 -30 12 -43 3 -13 10 -24 15 -24 12 0 12 1 -12
46 -11 21 -18 31 -15 21z"/>
<path d="M4351 3433 c-1 -6 -4 -20 -7 -30 -5 -17 -5 -17 6 0 6 10 9 23 6 30
-3 9 -5 9 -5 0z"/>
<path d="M4381 3408 c-13 -38 -14 -58 -1 -38 8 12 13 13 29 3 16 -10 18 -9 14
7 -3 11 -11 16 -19 13 -9 -3 -14 1 -14 12 0 9 5 13 10 10 6 -3 10 -2 10 4 0
25 -19 18 -29 -11z"/>
<path d="M4441 3398 c1 -24 3 -35 6 -25 5 21 22 22 29 2 4 -8 11 -15 17 -15 5
0 3 8 -6 18 -12 13 -14 21 -6 29 15 15 3 33 -22 33 -16 0 -19 -7 -18 -42z m37
20 c-6 -18 -28 -21 -28 -4 0 9 7 16 16 16 9 0 14 -5 12 -12z"/>
<path d="M4512 3423 c-15 -28 3 -63 30 -62 l23 2 -22 4 c-18 3 -23 11 -23 33
0 22 5 30 23 33 l22 4 -22 2 c-12 0 -26 -7 -31 -16z"/>
<path d="M4573 3400 c0 -25 2 -35 4 -22 3 13 12 22 23 22 11 0 20 -9 23 -22 2
-13 4 -3 4 22 1 25 -1 37 -4 28 -2 -10 -13 -18 -23 -18 -10 0 -21 8 -23 18 -3
9 -5 -3 -4 -28z"/>
<path d="M4652 3403 c-6 -20 -9 -39 -7 -42 3 -2 5 1 5 7 0 7 9 12 20 12 11 0
20 -5 20 -12 0 -6 3 -9 6 -5 8 7 -15 77 -25 77 -4 0 -13 -17 -19 -37z m24 -10
c-10 -10 -19 5 -10 18 6 11 8 11 12 0 2 -7 1 -15 -2 -18z"/>
<path d="M4711 3398 c1 -24 3 -35 6 -25 2 9 7 17 10 17 4 0 15 -8 26 -17 14
-13 18 -13 11 -3 -5 8 -9 26 -9 40 0 18 -6 26 -22 28 -21 3 -23 0 -22 -40z
m39 17 c0 -8 -7 -15 -15 -15 -8 0 -15 7 -15 15 0 8 7 15 15 15 8 0 15 -7 15
-15z"/>
<path d="M4839 3429 c19 -8 21 -12 11 -24 -7 -9 -10 -18 -7 -21 8 -9 29 35 22
46 -3 6 -16 10 -28 9 -22 0 -21 0 2 -10z"/>
<path d="M4890 3420 c0 -12 7 -20 16 -20 9 0 14 -6 11 -12 -2 -7 -12 -12 -21
-12 -9 1 -16 -2 -16 -7 0 -5 9 -9 20 -9 27 0 38 29 17 45 -22 16 -21 22 1 28
13 4 11 5 -5 6 -17 1 -23 -5 -23 -19z"/>
<path d="M4950 3420 c0 -11 7 -20 15 -20 23 0 18 -19 -7 -30 l-23 -9 23 0 c29
-1 41 28 19 44 -22 16 -21 22 1 28 13 4 11 5 -5 6 -17 1 -23 -5 -23 -19z"/>
<path d="M3771 3393 c-1 -27 3 -33 19 -33 16 0 20 6 19 33 -2 30 -2 30 -6 5
-2 -16 -8 -28 -13 -28 -5 0 -11 12 -13 28 -4 25 -4 25 -6 -5z"/>
<path d="M3834 3409 c-4 -7 1 -16 12 -22 17 -10 17 -11 -1 -18 -16 -6 -17 -8
-3 -8 25 -1 33 20 12 32 -17 10 -17 11 1 18 16 6 17 8 3 8 -9 1 -20 -4 -24
-10z"/>
<path d="M3881 3393 c-1 -27 3 -33 19 -33 16 0 20 6 19 33 -2 30 -2 30 -6 5
-2 -16 -8 -28 -13 -28 -5 0 -11 12 -13 28 -4 25 -4 25 -6 -5z"/>
<path d="M4001 3388 c1 -28 2 -29 7 -10 4 13 12 23 17 23 6 0 13 -10 17 -23 6
-19 7 -18 5 7 -2 23 -7 31 -24 33 -20 3 -23 -1 -22 -30z"/>
<path d="M4064 3406 c-9 -24 4 -48 23 -44 12 2 18 12 18 28 0 29 -32 41 -41
16z m31 -16 c0 -7 -6 -15 -12 -17 -8 -3 -13 4 -13 17 0 13 5 20 13 18 6 -3 12
-11 12 -18z"/>
<path d="M4121 3388 c1 -21 3 -26 6 -13 9 35 23 41 24 10 1 -28 1 -29 8 -6 9
34 29 37 34 6 4 -24 4 -24 3 2 -1 25 -5 28 -38 31 -37 2 -38 1 -37 -30z"/>
<path d="M4235 3411 c19 -9 19 -10 -3 -10 -33 -1 -25 -35 8 -38 l25 -3 -25 12
-25 11 23 5 c27 4 24 26 -4 29 -18 3 -18 2 1 -6z"/>
<path d="M340 3395 c0 -8 -6 -15 -14 -15 -8 0 -16 -7 -20 -15 -8 -23 4 -45 25
-45 16 0 19 8 19 45 0 25 -2 45 -5 45 -3 0 -5 -7 -5 -15z m0 -45 c0 -11 -4
-20 -9 -20 -14 0 -23 18 -16 30 10 17 25 11 25 -10z"/>
<path d="M610 3395 c0 -8 -6 -15 -14 -15 -16 0 -31 -34 -21 -50 3 -5 15 -10
26 -10 16 0 19 7 19 45 0 25 -2 45 -5 45 -3 0 -5 -7 -5 -15z m0 -45 c0 -21
-15 -27 -25 -10 -7 12 2 30 16 30 5 0 9 -9 9 -20z"/>
<path d="M730 3396 c0 -7 -9 -16 -21 -19 -29 -8 -22 -51 9 -55 20 -3 22 1 22
42 0 25 -2 46 -5 46 -3 0 -5 -6 -5 -14z m0 -46 c0 -11 -7 -20 -15 -20 -8 0
-15 9 -15 20 0 11 7 20 15 20 8 0 15 -9 15 -20z"/>
<path d="M845 3360 c0 -22 5 -40 10 -40 6 0 10 18 10 40 0 22 -4 40 -10 40 -5
0 -10 -18 -10 -40z"/>
<path d="M890 3361 c0 -23 2 -41 4 -41 8 0 12 71 4 76 -4 3 -8 -13 -8 -35z"/>
<path d="M930 3373 c0 -22 -2 -25 -10 -13 -5 8 -10 10 -10 4 0 -5 7 -19 15
-30 13 -18 14 -16 15 24 0 23 -2 42 -5 42 -3 0 -5 -12 -5 -27z"/>
<path d="M963 3393 c12 -3 17 -16 19 -41 l1 -37 4 35 c3 19 10 38 16 42 7 4
-4 7 -23 7 -19 -1 -27 -3 -17 -6z"/>
<path d="M282 3350 c0 -19 2 -27 5 -17 2 9 2 25 0 35 -3 9 -5 1 -5 -18z"/>
<path d="M460 3361 c0 -30 -19 -35 -29 -9 -6 13 -10 18 -10 11 -2 -24 12 -43
30 -43 14 0 19 7 19 30 0 17 -2 30 -5 30 -3 0 -5 -9 -5 -19z"/>
<path d="M491 3348 c2 -31 2 -31 6 -5 2 15 8 27 13 27 5 0 11 -12 13 -27 4
-26 4 -26 6 5 1 26 -3 32 -19 32 -16 0 -20 -6 -19 -32z"/>
<path d="M552 3350 c0 -19 2 -27 5 -17 2 9 2 25 0 35 -3 9 -5 1 -5 -18z"/>
<path d="M648 3374 c10 -5 9 -9 -4 -18 -21 -16 -11 -36 17 -36 29 0 23 54 -6
57 -11 2 -14 0 -7 -3z m17 -34 c-3 -5 -10 -10 -16 -10 -5 0 -9 5 -9 10 0 6 7
10 16 10 8 0 12 -4 9 -10z"/>
<path d="M754 3366 c-10 -25 3 -46 28 -45 23 0 23 0 -2 11 l-25 11 23 5 c13 2
21 9 19 15 -6 19 -36 20 -43 3z m33 -2 c-3 -3 -12 -4 -19 -1 -8 3 -5 6 6 6 11
1 17 -2 13 -5z"/>
<path d="M4820 3370 c0 -5 12 -10 28 -9 24 0 25 1 7 9 -27 12 -35 12 -35 0z"/>
<path d="M3953 3343 c9 -2 23 -2 30 0 6 3 -1 5 -18 5 -16 0 -22 -2 -12 -5z"/>
<path d="M373 3303 c9 -2 25 -2 35 0 9 3 1 5 -18 5 -19 0 -27 -2 -17 -5z"/>
<path d="M4040 3206 c0 -8 -8 -17 -17 -19 -17 -4 -16 -5 0 -6 12 -1 17 -7 15
-18 -4 -21 -25 -28 -31 -11 -2 8 -4 8 -3 -2 1 -8 11 -16 24 -18 20 -3 22 1 22
42 0 25 -2 46 -5 46 -3 0 -5 -6 -5 -14z"/>
<path d="M4118 3198 c-9 -25 5 -68 21 -67 10 0 11 2 4 6 -15 5 -17 40 -4 45 5
2 3 8 -4 15 -10 9 -15 9 -17 1z"/>
<path d="M4250 3170 c0 -37 2 -41 21 -38 30 4 47 33 33 56 -6 9 -21 18 -33 20
-19 3 -21 -1 -21 -38z m45 0 c0 -16 -6 -26 -17 -28 -14 -3 -18 3 -18 28 0 25
4 31 18 28 11 -2 17 -12 17 -28z"/>
<path d="M4330 3174 c-7 -19 -9 -38 -6 -41 3 -4 6 -1 6 5 0 7 9 12 20 12 11 0
20 -5 20 -12 0 -6 2 -9 5 -6 3 3 1 16 -4 29 -5 13 -10 18 -10 12 -1 -18 -21
-16 -21 2 0 8 5 15 10 15 6 0 10 5 10 10 0 24 -19 7 -30 -26z"/>
<path d="M4393 3203 c12 -3 17 -16 19 -41 l1 -37 4 35 c3 19 10 38 16 42 7 4
-4 7 -23 7 -19 -1 -27 -3 -17 -6z"/>
<path d="M4450 3201 c0 -4 11 -6 25 -3 14 2 25 6 25 8 0 2 -11 4 -25 4 -14 0
-25 -4 -25 -9z"/>
<path d="M3771 3163 c-1 -27 3 -33 19 -33 16 0 20 6 19 33 -2 30 -2 30 -6 5
-2 -16 -8 -28 -13 -28 -5 0 -11 12 -13 28 -4 25 -4 25 -6 -5z"/>
<path d="M3834 3179 c-4 -7 1 -16 12 -22 17 -10 17 -11 -1 -18 -16 -6 -17 -8
-3 -8 25 -1 33 20 12 32 -17 10 -17 11 1 18 16 6 17 8 3 8 -9 1 -20 -4 -24
-10z"/>
<path d="M3884 3160 c1 -15 8 -26 19 -28 14 -3 17 3 16 30 -2 30 -2 31 -6 6
-5 -34 -20 -37 -26 -5 -3 19 -4 19 -3 -3z"/>
<path d="M4078 3183 c10 -4 9 -8 -4 -17 -19 -14 -11 -36 12 -36 9 0 14 11 14
30 0 22 -5 30 -17 29 -12 0 -13 -2 -5 -6z m12 -33 c0 -5 -4 -10 -10 -10 -5 0
-10 5 -10 10 0 6 5 10 10 10 6 0 10 -4 10 -10z"/>
<path d="M4175 3181 c17 -8 18 -10 3 -10 -27 -1 -24 -41 3 -41 16 0 20 5 17
27 -2 19 -9 29 -23 30 l-20 3 20 -9z m15 -31 c0 -5 -4 -10 -10 -10 -5 0 -10 5
-10 10 0 6 5 10 10 10 6 0 10 -4 10 -10z"/>
<path d="M640 3166 c0 -8 -7 -17 -16 -20 -21 -8 -14 -50 9 -54 14 -3 17 4 17
42 0 25 -2 46 -5 46 -3 0 -5 -6 -5 -14z m0 -46 c0 -11 -4 -20 -10 -20 -5 0
-10 9 -10 20 0 11 5 20 10 20 6 0 10 -9 10 -20z"/>
<path d="M1452 3168 c-18 -18 -15 -74 6 -89 14 -11 15 -11 5 1 -16 18 -17 72
-1 88 7 7 10 12 7 12 -3 0 -10 -5 -17 -12z"/>
<path d="M4453 3164 c-8 -20 10 -37 33 -31 16 4 15 5 -3 6 -13 0 -23 7 -23 15
0 8 10 17 23 19 l22 4 -23 2 c-12 0 -25 -6 -29 -15z"/>
<path d="M1011 3163 c-1 -6 -4 -20 -7 -30 -5 -17 -5 -17 6 0 6 10 9 23 6 30
-3 9 -5 9 -5 0z"/>
<path d="M1041 3133 c-6 -20 -8 -39 -6 -42 3 -2 5 1 5 7 0 7 9 12 20 12 11 0
20 -5 20 -12 0 -6 2 -9 5 -7 7 7 -17 79 -26 79 -5 0 -13 -17 -18 -37z m29 -4
c0 -5 -4 -9 -10 -9 -5 0 -10 7 -10 16 0 8 5 12 10 9 6 -3 10 -10 10 -16z"/>
<path d="M1101 3128 c1 -24 3 -35 6 -25 5 21 22 22 29 2 4 -8 11 -15 18 -15 6
0 -1 12 -16 25 -27 23 -36 45 -20 45 4 0 14 -6 21 -12 11 -11 13 -10 9 2 -3 8
-14 16 -26 18 -20 3 -22 -1 -21 -40z"/>
<path d="M1174 3156 c-11 -30 0 -61 24 -62 18 -1 19 -1 2 3 -30 7 -28 60 3 66
l22 4 -23 2 c-12 0 -25 -5 -28 -13z"/>
<path d="M1234 3150 c1 -8 11 -16 23 -18 13 -2 23 -12 26 -25 2 -12 4 -2 4 23
1 25 -1 37 -4 28 -5 -21 -39 -24 -46 -5 -2 7 -3 6 -3 -3z"/>
<path d="M1320 3154 c0 -8 5 -12 10 -9 6 3 10 -1 10 -10 0 -11 -5 -15 -14 -12
-14 6 -32 -21 -21 -31 3 -3 5 0 5 6 0 7 9 12 20 12 11 0 20 -5 20 -12 0 -6 3
-9 6 -5 8 8 -15 77 -27 77 -5 0 -9 -7 -9 -16z"/>
<path d="M1371 3153 c0 -10 3 -13 6 -5 7 17 33 15 33 -3 0 -8 -9 -15 -20 -15
-11 0 -20 -5 -20 -11 0 -5 5 -7 11 -4 5 4 20 -1 31 -12 14 -11 18 -12 12 -3
-5 8 -9 26 -9 40 0 18 -6 26 -22 28 -17 3 -23 -1 -22 -15z"/>
<path d="M1499 3159 c19 -8 21 -12 11 -24 -7 -9 -10 -18 -7 -21 8 -9 29 35 22
46 -3 6 -16 10 -28 9 -22 0 -21 0 2 -10z"/>
<path d="M1550 3150 c0 -11 7 -20 15 -20 23 0 18 -19 -7 -30 l-23 -9 23 0 c29
-1 41 28 19 44 -22 16 -21 22 1 28 13 4 11 5 -5 6 -17 1 -23 -5 -23 -19z"/>
<path d="M281 3123 c-1 -27 3 -33 19 -33 16 0 20 6 19 33 -2 30 -2 30 -6 5 -2
-16 -8 -28 -13 -28 -5 0 -11 12 -13 28 -4 25 -4 25 -6 -5z"/>
<path d="M341 3118 c1 -28 2 -29 7 -10 4 13 12 23 17 23 6 0 13 -10 17 -23 6
-19 7 -18 5 7 -2 23 -7 31 -24 33 -20 3 -23 -1 -22 -30z"/>
<path d="M402 3120 c0 -19 2 -27 5 -17 2 9 2 25 0 35 -3 9 -5 1 -5 -18z"/>
<path d="M494 3135 c-9 -23 3 -45 23 -44 17 1 17 2 1 6 -22 5 -24 23 -3 23 8
0 15 7 15 15 0 8 -7 15 -15 15 -9 0 -18 -7 -21 -15z"/>
<path d="M540 3128 c1 -20 2 -21 11 -5 14 24 27 21 32 -8 4 -23 4 -23 3 2 -1
21 -7 29 -23 31 -18 3 -23 -1 -23 -20z"/>
<path d="M674 3135 c-9 -23 3 -45 23 -44 17 1 17 2 1 6 -22 5 -24 23 -3 23 8
0 15 7 15 15 0 8 -7 15 -15 15 -9 0 -18 -7 -21 -15z"/>
<path d="M721 3118 c1 -22 3 -26 6 -13 3 11 10 26 15 33 8 9 6 12 -6 12 -12 0
-16 -9 -15 -32z"/>
<path d="M785 3141 c19 -9 19 -10 -3 -10 -33 -1 -25 -35 8 -38 l25 -3 -25 12
-25 11 23 5 c27 4 24 26 -4 29 -18 3 -18 2 1 -6z"/>
<path d="M824 3135 c-9 -22 3 -45 23 -45 15 0 15 2 -3 15 -19 15 -19 15 0 30
18 13 18 15 3 15 -10 0 -20 -7 -23 -15z"/>
<path d="M874 3136 c-9 -24 4 -48 23 -44 12 2 18 12 18 28 0 29 -32 41 -41 16z
m36 -16 c0 -11 -4 -20 -9 -20 -14 0 -23 18 -16 30 10 17 25 11 25 -10z"/>
<path d="M980 3111 c0 -5 5 -13 10 -16 6 -3 10 -2 10 4 0 5 -4 13 -10 16 -5 3
-10 2 -10 -4z"/>
<path d="M1231 3104 c0 -11 3 -14 6 -6 3 7 2 16 -1 19 -3 4 -6 -2 -5 -13z"/>
<path d="M3943 3113 c9 -2 25 -2 35 0 9 3 1 5 -18 5 -19 0 -27 -2 -17 -5z"/>
<path d="M1480 3100 c0 -5 12 -10 28 -9 24 0 25 1 7 9 -27 12 -35 12 -35 0z"/>
<path d="M433 3073 c9 -2 25 -2 35 0 9 3 1 5 -18 5 -19 0 -27 -2 -17 -5z"/>
<path d="M4233 2945 c0 -27 2 -38 4 -22 2 15 2 37 0 50 -2 12 -4 0 -4 -28z"/>
<path d="M4775 2969 c-10 -30 -2 -32 12 -3 6 13 7 24 3 24 -5 0 -12 -9 -15
-21z"/>
<path d="M4996 2977 c3 -10 9 -15 12 -12 3 3 0 11 -7 18 -10 9 -11 8 -5 -6z"/>
<path d="M4336 2965 c-9 -26 -7 -32 5 -12 6 10 9 21 6 23 -2 3 -7 -2 -11 -11z"/>
<path d="M4377 2974 c-11 -11 -9 -26 3 -19 6 3 10 -1 10 -10 0 -11 -5 -15 -14
-12 -8 3 -16 -2 -19 -13 -4 -16 -2 -17 14 -7 16 10 21 9 29 -3 9 -13 10 -13 9
0 0 25 -24 72 -32 64z"/>
<path d="M4438 2973 c12 -2 22 -11 22 -20 0 -10 -6 -14 -20 -10 -27 7 -25 5
11 -22 18 -13 28 -17 23 -10 -5 8 -9 25 -9 39 0 20 -5 25 -25 27 -22 1 -22 1
-2 -4z"/>
<path d="M4507 2973 c-3 -5 6 -8 19 -8 13 0 24 3 24 8 0 4 -9 7 -19 7 -11 0
-22 -3 -24 -7z"/>
<path d="M4563 2940 c0 -25 2 -35 4 -22 3 13 12 22 23 22 11 0 20 -9 23 -22 2
-13 4 -3 4 22 1 25 -1 37 -4 28 -2 -10 -13 -18 -23 -18 -10 0 -21 8 -23 18 -3
9 -5 -3 -4 -28z"/>
<path d="M4640 2944 c-7 -19 -9 -38 -6 -41 3 -4 6 -1 6 5 0 7 9 12 20 12 11 0
20 -5 20 -12 0 -6 2 -9 5 -6 3 3 1 16 -4 29 -5 13 -10 18 -10 12 -1 -18 -21
-16 -21 2 0 8 5 15 10 15 6 0 10 5 10 10 0 24 -19 7 -30 -26z"/>
<path d="M4701 2938 c1 -24 3 -35 6 -25 5 21 22 22 29 2 4 -8 11 -15 17 -15 5
0 3 8 -6 18 -12 13 -14 21 -6 29 15 15 3 33 -22 33 -16 0 -19 -7 -18 -42z m37
20 c-6 -18 -28 -21 -28 -4 0 9 7 16 16 16 9 0 14 -5 12 -12z"/>
<path d="M4823 2973 c21 -6 22 -26 2 -43 -22 -18 -18 -30 8 -29 18 1 18 2 4 6
-17 4 -18 6 -2 24 20 22 13 49 -12 48 -17 -1 -17 -2 0 -6z"/>
<path d="M4870 2960 c0 -11 7 -20 15 -20 18 0 20 -27 3 -33 -8 -2 -7 -3 2 -3
21 2 26 46 6 46 -22 0 -20 17 2 23 13 4 11 5 -5 6 -17 1 -23 -5 -23 -19z"/>
<path d="M4930 2960 c0 -11 7 -20 15 -20 18 0 20 -27 3 -33 -8 -2 -7 -3 2 -3
21 2 26 46 6 46 -22 0 -20 17 2 23 13 4 11 5 -5 6 -17 1 -23 -5 -23 -19z"/>
<path d="M3771 2933 c-1 -27 3 -33 19 -33 16 0 20 6 19 33 -2 30 -2 30 -6 5
-2 -16 -8 -28 -13 -28 -5 0 -11 12 -13 28 -4 25 -4 25 -6 -5z"/>
<path d="M3834 2949 c-4 -7 1 -16 12 -22 17 -10 17 -11 -1 -18 -16 -6 -17 -8
-3 -8 25 -1 33 20 12 32 -17 10 -17 11 1 18 16 6 17 8 3 8 -9 1 -20 -4 -24
-10z"/>
<path d="M3881 2933 c-1 -27 3 -33 19 -33 16 0 20 6 19 33 -2 30 -2 30 -6 5
-2 -16 -8 -28 -13 -28 -5 0 -11 12 -13 28 -4 25 -4 25 -6 -5z"/>
<path d="M4004 2946 c-10 -25 3 -46 28 -45 23 0 23 0 -2 11 l-25 11 23 5 c13
2 21 9 19 15 -6 19 -36 20 -43 3z m33 -2 c-3 -3 -12 -4 -19 -1 -8 3 -5 6 6 6
11 1 17 -2 13 -5z"/>
<path d="M4061 2928 c2 -31 2 -31 6 -5 2 15 8 27 13 27 5 0 11 -12 13 -27 4
-26 4 -26 6 5 1 26 -3 32 -19 32 -16 0 -20 -6 -19 -32z"/>
<path d="M4168 2953 c10 -4 9 -8 -4 -17 -19 -14 -11 -36 12 -36 9 0 14 11 14
30 0 22 -5 30 -17 29 -12 0 -13 -2 -5 -6z m12 -33 c0 -5 -4 -10 -10 -10 -5 0
-10 5 -10 10 0 6 5 10 10 10 6 0 10 -4 10 -10z"/>
<path d="M4212 2930 c0 -19 2 -27 5 -17 2 9 2 25 0 35 -3 9 -5 1 -5 -18z"/>
<path d="M583 2905 c0 -27 2 -38 4 -22 2 15 2 37 0 50 -2 12 -4 0 -4 -28z"/>
<path d="M670 2939 c0 -5 5 -7 10 -4 6 3 10 8 10 11 0 2 -4 4 -10 4 -5 0 -10
-5 -10 -11z"/>
<path d="M1556 2937 c3 -10 9 -15 12 -12 3 3 0 11 -7 18 -10 9 -11 8 -5 -6z"/>
<path d="M4301 2943 c-2 -20 11 -43 20 -37 5 3 9 10 9 15 0 6 -4 8 -9 4 -5 -3
-12 3 -14 12 -3 10 -5 13 -6 6z"/>
<path d="M4493 2936 c3 -26 33 -44 48 -29 9 9 7 11 -9 6 -16 -4 -24 1 -32 18
-7 17 -9 19 -7 5z"/>
<path d="M5011 2934 c0 -11 3 -14 6 -6 3 7 2 16 -1 19 -3 4 -6 -2 -5 -13z"/>
<path d="M488 2929 c-6 -17 3 -69 11 -69 7 0 6 69 -2 76 -3 3 -7 0 -9 -7z"/>
<path d="M956 2925 c-9 -26 -7 -32 5 -12 6 10 9 21 6 23 -2 3 -7 -2 -11 -11z"/>
<path d="M997 2934 c-11 -11 -9 -26 3 -19 6 3 10 -1 10 -10 0 -11 -5 -15 -14
-12 -8 3 -16 -2 -19 -13 -4 -16 -2 -17 14 -7 16 10 21 9 29 -3 9 -13 10 -13 9
0 0 25 -24 72 -32 64z"/>
<path d="M1046 2931 c-3 -5 3 -7 14 -4 14 4 20 0 20 -12 0 -12 -6 -16 -20 -12
-16 4 -20 0 -19 -21 1 -17 3 -21 6 -9 2 9 7 17 10 17 4 0 15 -8 26 -17 14 -13
18 -13 11 -3 -5 8 -9 26 -9 40 0 25 -28 40 -39 21z"/>
<path d="M1120 2925 c-15 -18 -10 -45 12 -59 12 -7 21 -7 28 0 8 8 4 10 -12
10 -18 -1 -23 4 -23 24 0 19 5 25 23 24 12 0 22 3 22 8 0 14 -37 9 -50 -7z"/>
<path d="M1183 2900 c0 -25 2 -35 4 -22 3 13 12 22 23 22 11 0 20 -9 23 -22 2
-13 4 -3 4 22 1 25 -1 37 -4 28 -2 -10 -13 -18 -23 -18 -10 0 -21 8 -23 18 -3
9 -5 -3 -4 -28z"/>
<path d="M1260 2904 c-7 -19 -9 -38 -6 -41 3 -4 6 -1 6 5 0 7 9 12 20 12 11 0
20 -5 20 -12 0 -6 2 -9 5 -7 6 7 -17 79 -26 79 -4 0 -13 -16 -19 -36z m30 -5
c0 -5 -4 -9 -10 -9 -5 0 -10 7 -10 16 0 8 5 12 10 9 6 -3 10 -10 10 -16z"/>
<path d="M1321 2898 c1 -24 3 -35 6 -25 5 21 22 22 29 2 4 -8 11 -15 17 -15 5
0 3 8 -6 18 -12 13 -14 21 -6 29 15 15 3 33 -22 33 -16 0 -19 -7 -18 -42z m31
17 c0 -5 -5 -11 -11 -13 -6 -2 -11 4 -11 13 0 9 5 15 11 13 6 -2 11 -8 11 -13z"/>
<path d="M1440 2930 c-10 -6 -11 -10 -2 -10 6 0 12 -11 12 -24 0 -13 -6 -27
-12 -29 -7 -3 -4 -6 7 -6 18 -1 20 4 17 39 -2 22 -5 40 -6 40 0 0 -8 -5 -16
-10z"/>
<path d="M1500 2930 c-10 -6 -11 -10 -2 -10 6 0 12 -11 12 -24 0 -13 -6 -27
-12 -29 -7 -3 -4 -6 7 -6 18 -1 20 4 17 39 -2 22 -5 40 -6 40 0 0 -8 -5 -16
-10z"/>
<path d="M4770 2920 c0 -17 17 -47 23 -40 2 3 -2 16 -10 30 -7 14 -13 18 -13
10z"/>
<path d="M281 2893 c-1 -27 3 -33 19 -33 16 0 20 6 19 33 -2 30 -2 30 -6 5 -2
-16 -8 -28 -13 -28 -5 0 -11 12 -13 28 -4 25 -4 25 -6 -5z"/>
<path d="M341 2888 c1 -28 2 -29 7 -10 4 13 12 23 17 23 6 0 13 -10 17 -23 6
-19 7 -18 5 7 -2 23 -7 31 -24 33 -20 3 -23 -1 -22 -30z"/>
<path d="M402 2890 c0 -19 2 -27 5 -17 2 9 2 25 0 35 -3 9 -5 1 -5 -18z"/>
<path d="M545 2911 c19 -9 19 -10 -4 -10 -17 -1 -22 -5 -17 -17 3 -9 6 -18 6
-20 0 -2 10 -4 23 -3 21 0 21 1 -3 11 l-25 11 23 5 c27 4 24 26 -4 29 -18 3
-18 2 1 -6z"/>
<path d="M614 2905 c-9 -23 3 -45 23 -44 17 1 17 2 1 6 -22 5 -24 23 -3 23 8
0 15 7 15 15 0 8 -7 15 -15 15 -9 0 -18 -7 -21 -15z"/>
<path d="M661 2893 c1 -22 2 -23 6 -8 3 11 10 23 17 27 7 5 5 8 -6 8 -13 0
-18 -7 -17 -27z"/>
<path d="M704 2906 c-8 -22 3 -49 19 -43 6 2 12 14 12 27 0 27 -22 39 -31 16z
m26 -16 c0 -11 -4 -20 -10 -20 -5 0 -10 9 -10 20 0 11 5 20 10 20 6 0 10 -9
10 -20z"/>
<path d="M761 2888 c2 -31 2 -31 6 -5 2 15 8 27 13 27 5 0 11 -12 13 -27 4
-26 4 -26 6 5 1 26 -3 32 -19 32 -16 0 -20 -6 -19 -32z"/>
<path d="M845 2911 c19 -9 19 -10 -3 -10 -33 -1 -25 -35 8 -38 l25 -3 -25 12
-25 11 23 5 c27 4 24 26 -4 29 -18 3 -18 2 1 -6z"/>
<path d="M921 2903 c-2 -20 11 -43 20 -37 5 3 9 10 9 15 0 6 -4 8 -9 4 -5 -3
-12 3 -14 12 -3 10 -5 13 -6 6z"/>
<path d="M1571 2894 c0 -11 3 -14 6 -6 3 7 2 16 -1 19 -3 4 -6 -2 -5 -13z"/>
<path d="M4996 2893 c-6 -14 -5 -15 5 -6 7 7 10 15 7 18 -3 3 -9 -2 -12 -12z"/>
<path d="M3943 2883 c9 -2 25 -2 35 0 9 3 1 5 -18 5 -19 0 -27 -2 -17 -5z"/>
<path d="M1390 2866 c0 -8 4 -17 9 -20 5 -4 7 3 4 14 -6 23 -13 26 -13 6z"/>
<path d="M1556 2853 c-6 -14 -5 -15 5 -6 7 7 10 15 7 18 -3 3 -9 -2 -12 -12z"/>
<path d="M433 2843 c9 -2 25 -2 35 0 9 3 1 5 -18 5 -19 0 -27 -2 -17 -5z"/>
<path d="M4173 2715 c0 -27 2 -38 4 -22 2 15 8 27 13 27 5 0 11 -12 13 -27 4
-26 4 -26 6 5 1 22 -4 32 -13 32 -8 0 -17 8 -19 18 -3 9 -5 -5 -4 -33z"/>
<path d="M4803 2745 c-3 -9 -3 -18 -1 -21 3 -3 8 4 11 16 6 23 -1 27 -10 5z"/>
<path d="M5026 2747 c3 -10 9 -15 12 -12 3 3 0 11 -7 18 -10 9 -11 8 -5 -6z"/>
<path d="M4321 2734 c0 -11 3 -14 6 -6 3 7 2 16 -1 19 -3 4 -6 -2 -5 -13z"/>
<path d="M4358 2719 c-8 -23 -13 -27 -19 -17 -5 7 -9 9 -9 3 0 -5 4 -17 10
-25 9 -14 11 -10 35 58 2 6 2 12 -1 12 -3 0 -10 -14 -16 -31z"/>
<path d="M4407 2744 c-11 -11 -8 -26 3 -19 6 3 10 -1 10 -10 0 -11 -5 -15 -14
-12 -8 3 -16 -2 -19 -13 -4 -16 -2 -17 14 -7 16 10 21 9 29 -3 8 -12 10 -11 9
5 0 26 -23 68 -32 59z"/>
<path d="M4468 2743 c12 -2 22 -11 22 -19 0 -17 -26 -19 -33 -1 -3 6 -6 -1 -6
-18 -1 -22 2 -26 9 -15 7 12 12 11 31 -5 13 -12 18 -14 13 -5 -5 8 -9 26 -9
40 0 20 -5 25 -25 27 -22 1 -22 1 -2 -4z"/>
<path d="M4530 2735 c-15 -18 -10 -45 12 -59 12 -7 21 -7 28 0 8 8 4 10 -12
10 -18 -1 -23 4 -23 24 0 19 5 25 22 24 12 0 20 3 17 8 -8 13 -30 9 -44 -7z"/>
<path d="M4593 2710 c0 -25 2 -35 4 -22 3 13 12 22 23 22 11 0 20 -9 23 -22 2
-13 4 -3 4 22 1 25 -1 37 -4 28 -2 -10 -13 -18 -23 -18 -10 0 -21 8 -23 18 -3
9 -5 -3 -4 -28z"/>
<path d="M4670 2714 c-7 -19 -9 -38 -6 -41 3 -4 6 -1 6 5 0 7 9 12 20 12 11 0
20 -5 20 -12 0 -6 2 -9 5 -7 6 7 -17 79 -26 79 -4 0 -13 -16 -19 -36z m30 -5
c0 -5 -4 -9 -10 -9 -5 0 -10 7 -10 16 0 8 5 12 10 9 6 -3 10 -10 10 -16z"/>
<path d="M4731 2708 c1 -24 3 -35 6 -25 5 21 22 22 29 2 4 -8 11 -15 17 -15 5
0 3 8 -6 18 -12 13 -14 21 -6 29 15 15 3 33 -22 33 -16 0 -19 -7 -18 -42z m31
17 c0 -5 -5 -11 -11 -13 -6 -2 -11 4 -11 13 0 9 5 15 11 13 6 -2 11 -8 11 -13z"/>
<path d="M4853 2743 c21 -6 22 -26 2 -43 -22 -18 -18 -30 8 -29 18 1 18 2 4 6
-17 4 -18 6 -2 24 20 22 13 49 -12 48 -17 -1 -17 -2 0 -6z"/>
<path d="M4900 2730 c0 -11 7 -20 15 -20 18 0 20 -27 3 -33 -8 -2 -7 -3 2 -3
21 2 26 46 6 46 -22 0 -20 17 2 23 13 4 11 5 -5 6 -17 1 -23 -5 -23 -19z"/>
<path d="M4960 2730 c0 -11 7 -20 15 -20 18 0 20 -27 3 -33 -8 -2 -7 -3 2 -3
21 2 26 46 6 46 -22 0 -20 17 2 23 13 4 11 5 -5 6 -17 1 -23 -5 -23 -19z"/>
<path d="M1590 2690 l0 -41 30 18 c17 9 30 21 30 25 0 4 -13 14 -30 23 l-30
16 0 -41z"/>
<path d="M3771 2703 c-1 -27 3 -33 19 -33 16 0 20 6 19 33 -2 30 -2 30 -6 5
-2 -16 -8 -28 -13 -28 -5 0 -11 12 -13 28 -4 25 -4 25 -6 -5z"/>
<path d="M3834 2719 c-4 -7 1 -16 12 -22 17 -10 17 -11 -1 -18 -16 -6 -17 -8
-3 -8 25 -1 33 20 12 32 -17 10 -17 11 1 18 16 6 17 8 3 8 -9 1 -20 -4 -24
-10z"/>
<path d="M3884 2700 c1 -15 8 -26 19 -28 14 -3 17 3 16 30 -2 30 -2 31 -6 6
-5 -34 -20 -37 -26 -5 -3 19 -4 19 -3 -3z"/>
<path d="M4004 2719 c-4 -7 1 -16 12 -22 17 -10 17 -11 -1 -18 -16 -6 -17 -8
-3 -8 25 -1 33 20 12 32 -17 10 -17 11 1 18 16 6 17 8 3 8 -9 1 -20 -4 -24
-10z"/>
<path d="M4054 2715 c-9 -23 3 -45 23 -44 17 1 17 2 1 6 -22 5 -24 23 -3 23 8
0 15 7 15 15 0 8 -7 15 -15 15 -9 0 -18 -7 -21 -15z"/>
<path d="M4111 2698 c2 -31 2 -31 6 -5 2 15 8 27 13 27 5 0 11 -12 13 -27 4
-26 4 -26 6 5 1 26 -3 32 -19 32 -16 0 -20 -6 -19 -32z"/>
<path d="M4248 2723 c10 -4 9 -8 -4 -17 -9 -7 -14 -18 -10 -24 9 -14 36 -16
36 -2 0 5 -7 7 -15 4 -8 -4 -15 -1 -15 5 0 6 7 11 15 11 8 0 15 7 15 15 0 8
-8 15 -17 14 -12 0 -13 -2 -5 -6z"/>
<path d="M5041 2704 c0 -11 3 -14 6 -6 3 7 2 16 -1 19 -3 4 -6 -2 -5 -13z"/>
<path d="M4800 2676 c0 -8 4 -17 9 -20 5 -4 7 3 4 14 -6 23 -13 26 -13 6z"/>
<path d="M5026 2663 c-6 -14 -5 -15 5 -6 7 7 10 15 7 18 -3 3 -9 -2 -12 -12z"/>
<path d="M3953 2653 c9 -2 23 -2 30 0 6 3 -1 5 -18 5 -16 0 -22 -2 -12 -5z"/>
<path d="M3311 2598 c1 -16 3 -18 6 -6 2 9 16 19 31 21 24 4 24 4 -5 6 -28 1
-33 -2 -32 -21z"/>
<path d="M3443 2613 c15 -2 37 -2 50 0 12 2 0 4 -28 4 -27 0 -38 -2 -22 -4z"/>
<path d="M3568 2613 c7 -3 16 -2 19 1 4 3 -2 6 -13 5 -11 0 -14 -3 -6 -6z"/>
<path d="M3313 2485 c0 -27 2 -38 4 -22 2 15 2 37 0 50 -2 12 -4 0 -4 -28z"/>
<path d="M4103 2485 c0 -27 2 -38 4 -22 2 15 2 37 0 50 -2 12 -4 0 -4 -28z"/>
<path d="M4182 2513 c-5 -10 -5 -31 -1 -48 l7 -30 2 30 c1 17 2 34 1 39 -1 5
4 13 11 17 9 6 10 9 1 9 -7 0 -16 -8 -21 -17z"/>
<path d="M4912 2518 c-18 -18 -15 -74 6 -89 14 -11 15 -11 5 1 -16 18 -17 72
-1 88 7 7 10 12 7 12 -3 0 -10 -5 -17 -12z"/>
<path d="M4002 2484 c2 -20 9 -39 16 -40 7 -1 8 0 2 3 -12 6 -13 40 -1 45 5 2
2 9 -6 17 -12 11 -14 8 -11 -25z"/>
<path d="M4424 2507 c4 -11 9 -30 12 -43 3 -13 10 -24 15 -24 12 0 12 1 -12
46 -11 21 -18 31 -15 21z"/>
<path d="M4471 2513 c-1 -6 -4 -20 -7 -30 -5 -17 -5 -17 6 0 6 10 9 23 6 30
-3 9 -5 9 -5 0z"/>
<path d="M4500 2485 c-7 -20 -9 -39 -6 -42 3 -4 6 -1 6 5 0 7 9 12 21 12 16 0
19 4 14 23 -12 39 -23 40 -35 2z m24 0 c3 -8 1 -15 -4 -15 -6 0 -10 7 -10 15
0 8 2 15 4 15 2 0 6 -7 10 -15z"/>
<path d="M4561 2478 c1 -24 3 -35 6 -25 5 21 22 22 29 2 4 -8 11 -15 17 -15 5
0 3 8 -6 18 -12 13 -14 21 -6 29 15 15 3 33 -22 33 -16 0 -19 -7 -18 -42z m31
17 c0 -5 -5 -11 -11 -13 -6 -2 -11 4 -11 13 0 9 5 15 11 13 6 -2 11 -8 11 -13z"/>
<path d="M4631 2498 c-12 -31 4 -58 32 -57 l22 2 -22 4 c-18 3 -23 11 -23 33
0 22 5 30 23 33 l22 4 -23 2 c-15 1 -25 -6 -31 -21z"/>
<path d="M4740 2505 c0 -9 -9 -15 -25 -15 -14 0 -25 -4 -25 -9 0 -4 11 -6 24
-4 19 4 25 0 29 -18 2 -14 5 -6 6 19 0 23 -1 42 -4 42 -3 0 -5 -7 -5 -15z"/>
<path d="M4772 2483 c-6 -20 -9 -39 -7 -42 3 -2 5 1 5 7 0 7 9 12 20 12 11 0
20 -5 20 -12 0 -6 3 -9 6 -5 8 7 -15 77 -25 77 -4 0 -13 -17 -19 -37z m24 -10
c-10 -10 -19 5 -10 18 6 11 8 11 12 0 2 -7 1 -15 -2 -18z"/>
<path d="M4831 2503 c0 -10 3 -13 6 -5 7 17 33 15 33 -3 0 -9 -10 -15 -22 -16
-15 0 -18 -2 -8 -6 8 -3 24 -13 34 -22 16 -13 18 -13 10 -1 -5 8 -9 26 -9 40
0 18 -6 26 -22 28 -17 3 -23 -1 -22 -15z"/>
<path d="M4957 2503 c-21 -24 -22 -33 -3 -33 8 0 16 -8 18 -17 3 -16 4 -15 9
2 3 11 3 31 0 43 -6 23 -6 24 -24 5z m13 -13 c0 -5 -5 -10 -11 -10 -5 0 -7 5
-4 10 3 6 8 10 11 10 2 0 4 -4 4 -10z"/>
<path d="M3771 2473 c-1 -27 3 -33 19 -33 16 0 20 6 19 33 -2 30 -2 30 -6 5
-2 -16 -8 -28 -13 -28 -5 0 -11 12 -13 28 -4 25 -4 25 -6 -5z"/>
<path d="M3834 2489 c-4 -7 1 -16 12 -22 17 -10 17 -11 -1 -18 -16 -6 -17 -8
-3 -8 25 -1 33 20 12 32 -17 10 -17 11 1 18 16 6 17 8 3 8 -9 1 -20 -4 -24
-10z"/>
<path d="M3881 2473 c-1 -27 3 -33 19 -33 16 0 20 6 19 33 -2 30 -2 30 -6 5
-2 -16 -8 -28 -13 -28 -5 0 -11 12 -13 28 -4 25 -4 25 -6 -5z"/>
<path d="M4044 2485 c-9 -23 3 -45 23 -44 17 1 17 2 1 6 -22 5 -24 23 -3 23 8
0 15 7 15 15 0 8 -7 15 -15 15 -9 0 -18 -7 -21 -15z"/>
<path d="M4124 2486 c-10 -25 3 -46 28 -45 23 0 23 0 -2 11 l-25 11 23 5 c13
2 21 9 19 15 -6 19 -36 20 -43 3z m33 -2 c-3 -3 -12 -4 -19 -1 -8 3 -5 6 6 6
11 1 17 -2 13 -5z"/>
<path d="M4214 2486 c-9 -24 4 -48 23 -44 12 2 18 12 18 28 0 29 -32 41 -41
16z m36 -16 c0 -11 -4 -20 -9 -20 -14 0 -23 18 -16 30 10 17 25 11 25 -10z"/>
<path d="M4274 2491 c4 -5 13 -8 21 -5 9 4 15 -3 18 -20 4 -26 4 -25 3 1 -1
21 -7 29 -25 31 -14 2 -21 0 -17 -7z"/>
<path d="M4355 2491 c19 -9 19 -10 -4 -10 -17 -1 -22 -5 -17 -17 3 -9 6 -18 6
-20 0 -2 10 -4 23 -3 21 0 21 1 -3 11 l-25 11 23 5 c27 4 24 26 -4 29 -18 3
-18 2 1 -6z"/>
<path d="M922 2465 c0 -16 2 -22 5 -12 2 9 2 23 0 30 -3 6 -5 -1 -5 -18z"/>
<path d="M3953 2423 c9 -2 23 -2 30 0 6 3 -1 5 -18 5 -16 0 -22 -2 -12 -5z"/>
<path d="M923 2360 c0 -30 2 -43 4 -27 2 15 2 39 0 55 -2 15 -4 2 -4 -28z"/>
<path d="M3313 2345 c0 -27 2 -38 4 -22 2 15 2 37 0 50 -2 12 -4 0 -4 -28z"/>
<path d="M4230 2285 c0 -8 -6 -15 -14 -15 -16 0 -31 -34 -21 -50 3 -5 15 -10
26 -10 16 0 19 7 19 45 0 25 -2 45 -5 45 -3 0 -5 -7 -5 -15z m0 -45 c0 -11 -4
-20 -9 -20 -14 0 -23 18 -16 30 10 17 25 11 25 -10z"/>
<path d="M4893 2285 c-3 -9 -3 -18 -1 -21 3 -3 8 4 11 16 6 23 -1 27 -10 5z"/>
<path d="M4996 2287 c3 -10 9 -15 12 -12 3 3 0 11 -7 18 -10 9 -11 8 -5 -6z"/>
<path d="M4473 2283 c12 -3 17 -16 19 -41 l1 -37 4 35 c3 19 10 38 16 42 7 4
-4 7 -23 7 -19 -1 -27 -3 -17 -6z"/>
<path d="M4535 2250 c0 -22 5 -40 10 -40 6 0 10 18 10 40 0 22 -4 40 -10 40
-5 0 -10 -18 -10 -40z"/>
<path d="M4572 2248 c1 -38 2 -39 5 -10 2 18 8 30 14 27 5 -3 6 1 3 9 -12 30
-24 16 -22 -26z"/>
<path d="M4620 2264 c0 -14 -4 -23 -9 -20 -5 4 -7 -3 -4 -14 9 -34 23 -22 23
20 0 22 -2 40 -5 40 -3 0 -5 -12 -5 -26z"/>
<path d="M4651 2268 c13 -30 23 -29 39 5 11 21 11 21 -4 3 -16 -20 -16 -20
-31 0 -14 18 -15 17 -4 -8z"/>
<path d="M4715 2250 c0 -22 3 -40 8 -40 4 0 7 18 7 40 0 22 -3 40 -7 40 -5 0
-8 -18 -8 -40z"/>
<path d="M4751 2248 l2 -43 7 35 c4 19 8 29 9 21 0 -8 3 -12 6 -9 8 7 -5 38
-16 38 -5 0 -8 -19 -8 -42z"/>
<path d="M4788 2260 c-3 -16 -1 -35 4 -42 4 -8 8 4 8 30 0 49 -6 55 -12 12z"/>
<path d="M4827 2282 c6 -4 13 -23 16 -42 l4 -35 1 37 c2 25 7 38 20 41 9 3 1
5 -18 6 -19 0 -30 -3 -23 -7z"/>
<path d="M4940 2280 c-10 -6 -11 -10 -2 -10 6 0 12 -11 12 -24 0 -13 -6 -27
-12 -29 -7 -3 -4 -6 7 -6 18 -1 20 4 17 39 -2 22 -5 40 -6 40 0 0 -8 -5 -16
-10z"/>
<path d="M3771 2243 c-1 -27 3 -33 19 -33 16 0 20 6 19 33 -2 30 -2 30 -6 5
-2 -16 -8 -28 -13 -28 -5 0 -11 12 -13 28 -4 25 -4 25 -6 -5z"/>
<path d="M3834 2259 c-4 -7 1 -16 12 -22 17 -10 17 -11 -1 -18 -16 -6 -17 -8
-3 -8 25 -1 33 20 12 32 -17 10 -17 11 1 18 16 6 17 8 3 8 -9 1 -20 -4 -24
-10z"/>
<path d="M3881 2243 c-1 -27 3 -33 19 -33 16 0 20 6 19 33 -2 30 -2 30 -6 5
-2 -16 -8 -28 -13 -28 -5 0 -11 12 -13 28 -4 25 -4 25 -6 -5z"/>
<path d="M4002 2240 c0 -19 2 -27 5 -17 2 9 2 25 0 35 -3 9 -5 1 -5 -18z"/>
<path d="M4026 2261 c-3 -5 1 -14 10 -21 12 -11 12 -15 2 -21 -10 -7 -9 -9 5
-9 19 0 23 26 5 33 -10 4 -9 8 2 16 13 9 13 11 -2 11 -9 0 -19 -4 -22 -9z"/>
<path d="M4148 2264 c10 -5 9 -9 -4 -18 -21 -16 -11 -36 17 -36 29 0 23 54 -6
57 -11 2 -14 0 -7 -3z m17 -34 c-3 -5 -10 -10 -16 -10 -5 0 -9 5 -9 10 0 6 7
10 16 10 8 0 12 -4 9 -10z"/>
<path d="M4254 2259 c-4 -7 0 -9 14 -5 17 6 21 2 25 -21 l4 -28 2 28 c1 34 18
36 24 2 4 -23 4 -23 3 2 -1 24 -6 28 -33 30 -18 2 -35 -2 -39 -8z"/>
<path d="M4352 2240 c0 -19 2 -27 5 -17 2 9 2 25 0 35 -3 9 -5 1 -5 -18z"/>
<path d="M4371 2238 c1 -29 2 -30 8 -9 9 34 29 37 34 6 4 -24 4 -24 3 2 -1 21
-7 29 -23 31 -20 3 -23 -1 -22 -30z"/>
<path d="M923 2215 c0 -27 2 -38 4 -22 2 15 2 37 0 50 -2 12 -4 0 -4 -28z"/>
<path d="M5011 2244 c0 -11 3 -14 6 -6 3 7 2 16 -1 19 -3 4 -6 -2 -5 -13z"/>
<path d="M3313 2205 c0 -27 2 -38 4 -22 2 15 2 37 0 50 -2 12 -4 0 -4 -28z"/>
<path d="M3593 2190 c0 -30 2 -43 4 -27 2 15 2 39 0 55 -2 15 -4 2 -4 -28z"/>
<path d="M4890 2216 c0 -8 4 -17 9 -20 5 -4 7 3 4 14 -6 23 -13 26 -13 6z"/>
<path d="M4996 2203 c-6 -14 -5 -15 5 -6 7 7 10 15 7 18 -3 3 -9 -2 -12 -12z"/>
<path d="M3953 2193 c9 -2 23 -2 30 0 6 3 -1 5 -18 5 -16 0 -22 -2 -12 -5z"/>
<path d="M4083 2193 c9 -2 25 -2 35 0 9 3 1 5 -18 5 -19 0 -27 -2 -17 -5z"/>
<path d="M923 2075 c0 -27 2 -38 4 -22 2 15 2 37 0 50 -2 12 -4 0 -4 -28z"/>
<path d="M3313 2065 c0 -27 2 -38 4 -22 2 15 2 37 0 50 -2 12 -4 0 -4 -28z"/>
<path d="M4990 2020 l0 -41 30 16 c17 9 30 19 30 23 0 4 -13 16 -30 25 l-30
18 0 -41z"/>
<path d="M923 1935 c0 -27 2 -38 4 -22 2 15 2 37 0 50 -2 12 -4 0 -4 -28z"/>
<path d="M3313 1925 c0 -27 2 -38 4 -22 2 15 2 37 0 50 -2 12 -4 0 -4 -28z"/>
<path d="M1690 1950 c0 -8 21 -11 65 -8 l65 3 0 -57 0 -57 -62 -4 -63 -3 68
-2 68 -2 -3 68 -3 67 -67 3 c-46 2 -68 -1 -68 -8z"/>
<path d="M2230 1916 c0 -7 -9 -16 -21 -19 -16 -4 -20 -12 -17 -34 3 -27 4 -28
71 -30 l68 -3 -3 33 c-2 27 -8 33 -30 35 -16 2 -28 -1 -28 -7 0 -6 7 -8 15 -5
8 4 15 1 15 -5 0 -6 -4 -11 -9 -11 -5 0 -17 -3 -26 -6 -15 -6 -16 -2 -12 30 4
26 1 36 -9 36 -8 0 -14 -6 -14 -14z m0 -51 c0 -14 -4 -25 -10 -25 -5 0 -10 11
-10 25 0 14 5 25 10 25 6 0 10 -11 10 -25z m70 -15 c0 -5 -5 -10 -11 -10 -5 0
-7 5 -4 10 3 6 8 10 11 10 2 0 4 -4 4 -10z"/>
<path d="M2602 1878 l3 -43 47 -2 c37 -2 50 2 61 17 12 18 15 18 33 4 18 -15
18 -15 -3 -11 -13 3 -23 1 -23 -5 0 -17 55 -4 58 15 2 10 -3 17 -12 17 -9 0
-16 5 -16 11 0 6 7 9 15 5 8 -3 15 -1 15 4 0 13 -47 13 -55 0 -5 -8 -11 -7
-21 1 -8 6 -23 9 -34 6 -11 -3 -27 1 -34 9 -26 26 -37 16 -34 -28z m48 -13 c0
-14 -4 -25 -10 -25 -5 0 -10 11 -10 25 0 14 5 25 10 25 6 0 10 -11 10 -25z
m42 13 c6 -17 -1 -38 -13 -38 -5 0 -9 11 -9 25 0 26 14 34 22 13z"/>
<path d="M2887 1890 c9 -16 20 -30 23 -30 3 0 14 14 23 30 l18 30 -41 0 -41 0
18 -30z"/>
<path d="M1900 1890 c0 -5 7 -7 15 -4 8 4 15 2 15 -4 0 -5 -9 -12 -21 -15 -31
-8 -18 -31 19 -35 28 -3 32 0 33 20 l0 23 9 -22 c5 -13 17 -23 27 -24 13 -1
11 -4 -7 -9 -24 -9 -24 -9 5 -7 28 2 30 5 33 45 3 38 1 42 -20 42 -13 0 -30
-6 -37 -12 -11 -10 -14 -10 -18 0 -5 14 -53 17 -53 2z m110 -25 c0 -14 -4 -25
-10 -25 -5 0 -10 11 -10 25 0 14 5 25 10 25 6 0 10 -11 10 -25z"/>
<path d="M2050 1885 c-10 -12 -11 -21 -3 -33 11 -18 63 -29 63 -14 0 6 -8 8
-19 5 -10 -3 -22 0 -25 6 -5 7 3 11 19 11 20 0 26 4 23 18 -4 23 -41 27 -58 7z
m35 -5 c3 -5 -1 -10 -10 -10 -9 0 -13 5 -10 10 3 6 8 10 10 10 2 0 7 -4 10
-10z"/>
<path d="M2120 1866 c0 -20 5 -36 10 -36 6 0 10 14 10 30 0 17 5 30 10 30 6 0
10 -13 10 -30 0 -16 5 -30 11 -30 6 0 9 14 7 33 -2 27 -8 33 -30 35 -26 3 -28
1 -28 -32z"/>
<path d="M2340 1865 c0 -19 5 -35 10 -35 6 0 10 11 10 24 0 14 5 28 10 31 6 4
10 -7 10 -24 0 -17 5 -31 10 -31 6 0 10 14 10 30 0 17 5 30 10 30 6 0 10 -13
10 -30 0 -16 5 -30 11 -30 6 0 9 14 7 33 -3 31 -5 32 -50 35 l-48 2 0 -35z"/>
<path d="M2459 1884 c-9 -11 -10 -20 -2 -32 11 -18 63 -29 63 -14 0 6 -8 8
-19 5 -10 -3 -22 0 -25 6 -5 7 3 11 19 11 21 0 26 4 21 16 -3 9 -6 18 -6 20 0
11 -39 2 -51 -12z m36 -4 c3 -5 -1 -10 -10 -10 -9 0 -13 5 -10 10 3 6 8 10 10
10 2 0 7 -4 10 -10z"/>
<path d="M2530 1866 c0 -20 5 -36 10 -36 6 0 10 14 10 30 0 17 5 30 10 30 6 0
10 -13 10 -30 0 -16 5 -30 11 -30 6 0 9 14 7 33 -2 27 -8 33 -30 35 -26 3 -28
1 -28 -32z"/>
<path d="M923 1795 c0 -27 2 -38 4 -22 2 15 2 37 0 50 -2 12 -4 0 -4 -28z"/>
<path d="M3313 1785 c0 -27 2 -38 4 -22 2 15 2 37 0 50 -2 12 -4 0 -4 -28z"/>
<path d="M923 1655 c0 -27 2 -38 4 -22 2 15 2 37 0 50 -2 12 -4 0 -4 -28z"/>
<path d="M1860 1685 c0 -8 -6 -15 -14 -15 -8 0 -16 -7 -20 -15 -8 -23 4 -45
25 -45 16 0 19 8 19 45 0 25 -2 45 -5 45 -3 0 -5 -7 -5 -15z m0 -45 c0 -21
-15 -27 -25 -10 -7 12 2 30 16 30 5 0 9 -9 9 -20z"/>
<path d="M2220 1685 c0 -8 -6 -15 -14 -15 -8 0 -16 -7 -20 -15 -8 -23 4 -45
25 -45 16 0 19 8 19 45 0 25 -2 45 -5 45 -3 0 -5 -7 -5 -15z m0 -45 c0 -21
-15 -27 -25 -10 -7 12 2 30 16 30 5 0 9 -9 9 -20z"/>
<path d="M2645 1650 c0 -22 5 -40 10 -40 6 0 10 18 10 40 0 22 -4 40 -10 40
-5 0 -10 -18 -10 -40z"/>
<path d="M2686 1681 c-3 -5 1 -11 9 -15 8 -3 15 -1 15 4 0 13 -18 22 -24 11z"/>
<path d="M2731 1667 c0 -18 -5 -26 -12 -21 -6 4 -5 -3 2 -17 l14 -24 3 23 c2
12 1 32 -1 45 -4 18 -4 17 -6 -6z"/>
<path d="M2763 1683 c12 -3 17 -16 19 -41 l1 -37 4 35 c3 19 10 38 16 42 7 4
-4 7 -23 7 -19 -1 -27 -3 -17 -6z"/>
<path d="M3313 1645 c0 -27 2 -38 4 -22 2 15 2 37 0 50 -2 12 -4 0 -4 -28z"/>
<path d="M2510 1665 c0 -9 6 -12 15 -9 8 4 15 7 15 9 0 2 -7 5 -15 9 -9 3 -15
0 -15 -9z"/>
<path d="M1802 1640 c0 -19 2 -27 5 -17 2 9 2 25 0 35 -3 9 -5 1 -5 -18z"/>
<path d="M1964 1662 c19 -8 19 -9 -3 -15 -28 -7 -23 -31 8 -35 19 -3 22 0 19
25 -2 19 -9 29 -23 30 -19 3 -19 3 -1 -5z m11 -32 c-3 -5 -10 -10 -16 -10 -5
0 -9 5 -9 10 0 6 7 10 16 10 8 0 12 -4 9 -10z"/>
<path d="M2023 1663 c20 -5 23 -43 3 -43 -8 0 -17 8 -20 18 -4 13 -4 13 -3 -3
1 -12 11 -21 25 -23 19 -3 22 1 22 27 0 26 -4 31 -22 30 -17 -1 -19 -2 -5 -6z"/>
<path d="M2085 1661 c19 -9 19 -10 -3 -10 -33 -1 -25 -35 8 -38 l25 -3 -25 12
-25 11 23 5 c27 4 24 26 -4 29 -18 3 -18 2 1 -6z"/>
<path d="M2121 1638 c1 -28 2 -29 7 -10 4 13 12 23 17 23 6 0 13 -10 17 -23 6
-19 7 -18 5 7 -2 23 -7 31 -24 33 -20 3 -23 -1 -22 -30z"/>
<path d="M2264 1662 c19 -8 19 -9 -3 -15 -28 -7 -23 -31 8 -35 19 -3 22 0 19
25 -2 19 -9 29 -23 30 -19 3 -19 3 -1 -5z m11 -32 c-3 -5 -10 -10 -16 -10 -5
0 -9 5 -9 10 0 6 7 10 16 10 8 0 12 -4 9 -10z"/>
<path d="M2301 1638 c0 -18 3 -26 6 -18 2 8 7 22 9 30 4 12 7 12 13 1 6 -9 11
-10 15 -2 12 19 24 12 29 -14 4 -23 4 -23 3 2 -1 25 -5 28 -38 31 -37 2 -38 1
-37 -30z"/>
<path d="M2415 1661 c19 -9 19 -10 -3 -10 -33 -1 -25 -35 8 -38 l25 -3 -25 12
-25 11 23 5 c27 4 24 26 -4 29 -18 3 -18 2 1 -6z"/>
<path d="M2451 1638 c1 -28 2 -29 7 -10 4 13 12 23 17 23 6 0 13 -10 17 -23 6
-19 7 -18 5 7 -2 23 -7 31 -24 33 -20 3 -23 -1 -22 -30z"/>
<path d="M2554 1656 c-8 -22 3 -49 19 -43 6 2 12 14 12 27 0 27 -22 39 -31 16z
m26 -16 c0 -11 -4 -20 -10 -20 -5 0 -10 9 -10 20 0 11 5 20 10 20 6 0 10 -9
10 -20z"/>
<path d="M2510 1631 c0 -10 19 -25 25 -20 1 2 -3 10 -11 17 -8 7 -14 8 -14 3z"/>
<path d="M2681 1624 c0 -11 3 -14 6 -6 3 7 2 16 -1 19 -3 4 -6 -2 -5 -13z"/>
<path d="M1893 1593 c9 -2 25 -2 35 0 9 3 1 5 -18 5 -19 0 -27 -2 -17 -5z"/>
<path d="M2018 1593 c7 -3 16 -2 19 1 4 3 -2 6 -13 5 -11 0 -14 -3 -6 -6z"/>
<path d="M923 1515 c0 -27 2 -38 4 -22 2 15 2 37 0 50 -2 12 -4 0 -4 -28z"/>
<path d="M3313 1505 c0 -27 2 -38 4 -22 2 15 2 37 0 50 -2 12 -4 0 -4 -28z"/>
<path d="M2070 1456 c0 -8 -7 -16 -15 -20 -8 -3 -15 -17 -15 -31 0 -18 5 -25
20 -25 17 0 20 7 20 45 0 25 -2 45 -5 45 -3 0 -5 -6 -5 -14z m0 -46 c0 -11 -4
-20 -10 -20 -5 0 -10 9 -10 20 0 11 5 20 10 20 6 0 10 -9 10 -20z"/>
<path d="M2190 1456 c0 -8 -7 -16 -15 -20 -8 -3 -15 -17 -15 -31 0 -18 5 -25
20 -25 17 0 20 7 20 45 0 25 -2 45 -5 45 -3 0 -5 -6 -5 -14z m0 -46 c0 -11 -4
-20 -10 -20 -5 0 -10 9 -10 20 0 11 5 20 10 20 6 0 10 -9 10 -20z"/>
<path d="M2278 1449 c-6 -17 3 -69 11 -69 7 0 6 69 -2 76 -3 3 -7 0 -9 -7z"/>
<path d="M2415 1453 c11 -2 26 -12 33 -21 13 -16 13 -15 10 3 -2 14 -12 21
-33 22 -18 1 -22 -1 -10 -4z"/>
<path d="M2497 1454 c-11 -11 -8 -26 3 -19 6 3 10 1 10 -6 0 -7 3 -10 6 -6 3
3 2 13 -3 22 -5 8 -12 12 -16 9z"/>
<path d="M2553 1453 c12 -3 17 -16 19 -41 l1 -37 4 35 c3 19 10 38 16 42 7 4
-4 7 -23 7 -19 -1 -27 -3 -17 -6z"/>
<path d="M2610 1420 c0 -37 2 -40 28 -39 23 2 24 2 5 6 -27 5 -31 30 -5 36 16
4 16 5 0 6 -26 2 -22 19 5 24 19 4 18 4 -5 6 -26 1 -28 -2 -28 -39z"/>
<path d="M1814 1431 c18 -7 18 -8 3 -14 -24 -9 -21 -37 3 -37 16 0 20 7 20 30
0 25 -4 30 -22 29 -21 0 -21 -1 -4 -8z m16 -31 c0 -5 -4 -10 -10 -10 -5 0 -10
5 -10 10 0 6 5 10 10 10 6 0 10 -4 10 -10z"/>
<path d="M1867 1433 c-15 -14 -7 -53 11 -54 15 0 14 -2 -3 -10 l-20 -9 20 3
c15 2 21 11 23 40 2 26 -1 37 -11 37 -7 0 -17 -3 -20 -7z m23 -23 c0 -11 -4
-20 -10 -20 -5 0 -10 9 -10 20 0 11 5 20 10 20 6 0 10 -9 10 -20z"/>
<path d="M1924 1425 c-9 -23 3 -45 23 -44 17 1 17 2 1 6 -22 5 -24 23 -3 23 8
0 15 7 15 15 0 8 -7 15 -15 15 -9 0 -18 -7 -21 -15z"/>
<path d="M1981 1408 c2 -31 2 -31 6 -5 2 15 8 27 13 27 5 0 11 -12 13 -27 4
-26 4 -26 6 5 1 26 -3 32 -19 32 -16 0 -20 -6 -19 -32z"/>
<path d="M2234 1431 c18 -7 18 -8 3 -14 -24 -9 -21 -37 3 -37 16 0 20 7 20 30
0 25 -4 30 -22 29 -21 0 -21 -1 -4 -8z m16 -31 c0 -5 -4 -10 -10 -10 -5 0 -10
5 -10 10 0 6 5 10 10 10 6 0 10 -4 10 -10z"/>
<path d="M2328 1434 c10 -5 9 -9 -4 -18 -21 -16 -11 -36 17 -36 29 0 23 54 -6
57 -11 2 -14 0 -7 -3z m17 -34 c-3 -5 -10 -10 -16 -10 -5 0 -9 5 -9 10 0 6 7
10 16 10 8 0 12 -4 9 -10z"/>
<path d="M2404 1405 c1 -24 47 -28 54 -5 4 12 2 13 -9 3 -18 -18 -37 -16 -42
5 -3 13 -4 12 -3 -3z"/>
<path d="M923 1375 c0 -27 2 -38 4 -22 2 15 2 37 0 50 -2 12 -4 0 -4 -28z"/>
<path d="M2477 1399 c-4 -15 -2 -16 14 -6 16 10 21 9 29 -3 8 -13 10 -13 10 1
0 24 -47 31 -53 8z"/>
<path d="M3313 1365 c0 -27 2 -38 4 -22 2 15 2 37 0 50 -2 12 -4 0 -4 -28z"/>
<path d="M2103 1363 c9 -2 25 -2 35 0 9 3 1 5 -18 5 -19 0 -27 -2 -17 -5z"/>
<path d="M923 1235 c0 -27 2 -38 4 -22 2 15 2 37 0 50 -2 12 -4 0 -4 -28z"/>
<path d="M3313 1225 c0 -27 2 -38 4 -22 2 15 2 37 0 50 -2 12 -4 0 -4 -28z"/>
<path d="M2070 1226 c0 -8 -7 -17 -16 -20 -21 -8 -14 -50 9 -54 14 -3 17 4 17
42 0 25 -2 46 -5 46 -3 0 -5 -6 -5 -14z m0 -46 c0 -11 -4 -20 -10 -20 -5 0
-10 9 -10 20 0 11 5 20 10 20 6 0 10 -9 10 -20z"/>
<path d="M2163 1195 c0 -27 2 -38 4 -22 2 15 8 27 13 27 5 0 11 -12 13 -27 4
-26 4 -26 6 5 1 22 -4 32 -13 32 -8 0 -17 8 -19 18 -3 9 -5 -5 -4 -33z"/>
<path d="M2412 1223 c11 -3 18 -17 21 -41 l4 -37 1 38 c2 30 6 37 23 37 18 0
21 -5 17 -35 -2 -20 0 -35 7 -35 5 0 10 18 10 40 l0 40 -50 -1 c-27 -1 -42 -3
-33 -6z"/>
<path d="M2520 1191 c0 -23 2 -41 4 -41 8 0 12 71 4 76 -4 3 -8 -13 -8 -35z"/>
<path d="M2572 1205 c0 -16 2 -22 5 -12 2 9 2 23 0 30 -3 6 -5 -1 -5 -18z"/>
<path d="M2600 1190 c0 -37 2 -40 28 -39 23 2 24 2 5 6 -13 2 -23 11 -23 18 0
7 10 16 23 18 l22 4 -22 2 c-13 0 -23 5 -23 10 0 5 10 12 23 14 19 4 18 4 -5
6 -26 1 -28 -2 -28 -39z"/>
<path d="M1814 1201 c18 -7 18 -8 3 -14 -24 -9 -21 -37 3 -37 16 0 20 7 20 30
0 25 -4 30 -22 29 -21 0 -21 -1 -4 -8z m16 -31 c0 -5 -4 -10 -10 -10 -5 0 -10
5 -10 10 0 6 5 10 10 10 6 0 10 -4 10 -10z"/>
<path d="M1867 1203 c-15 -14 -7 -53 11 -54 15 0 14 -2 -3 -10 l-20 -9 20 3
c15 2 21 11 23 40 2 26 -1 37 -11 37 -7 0 -17 -3 -20 -7z m23 -23 c0 -11 -4
-20 -10 -20 -5 0 -10 9 -10 20 0 11 5 20 10 20 6 0 10 -9 10 -20z"/>
<path d="M1924 1195 c-9 -23 3 -45 23 -44 17 1 17 2 1 6 -22 5 -24 23 -3 23 8
0 15 7 15 15 0 8 -7 15 -15 15 -9 0 -18 -7 -21 -15z"/>
<path d="M1981 1178 c2 -31 2 -31 6 -5 2 15 8 27 13 27 5 0 11 -12 13 -27 4
-26 4 -26 6 5 1 26 -3 32 -19 32 -16 0 -20 -6 -19 -32z"/>
<path d="M2227 1204 c-11 -11 -8 -42 4 -50 6 -3 16 -1 22 5 9 9 8 11 -5 6 -14
-6 -18 -2 -18 14 0 22 15 29 23 11 3 -6 4 -5 3 2 -3 14 -20 21 -29 12z"/>
<path d="M2281 1178 c2 -28 2 -29 6 -8 3 14 10 28 17 32 7 5 5 8 -6 8 -14 0
-18 -8 -17 -32z"/>
<path d="M2334 1201 c18 -7 18 -8 3 -14 -24 -9 -21 -37 3 -37 16 0 20 7 20 30
0 25 -4 30 -22 29 -21 0 -21 -1 -4 -8z m16 -31 c0 -5 -4 -10 -10 -10 -5 0 -10
5 -10 10 0 6 5 10 10 10 6 0 10 -4 10 -10z"/>
<path d="M923 1090 c0 -30 2 -43 4 -27 2 15 2 39 0 55 -2 15 -4 2 -4 -28z"/>
<path d="M2103 1133 c9 -2 25 -2 35 0 9 3 1 5 -18 5 -19 0 -27 -2 -17 -5z"/>
<path d="M3313 1085 c0 -27 2 -38 4 -22 2 15 2 37 0 50 -2 12 -4 0 -4 -28z"/>
<path d="M1573 1082 c-29 -14 -53 -29 -53 -32 0 -8 87 -50 103 -49 6 0 -6 8
-28 17 l-40 17 40 6 40 6 -50 2 -50 2 48 25 c26 13 47 27 47 29 0 7 2 8 -57
-23z"/>
<path d="M3060 1075 l45 -24 -40 -2 c-38 -1 -39 -2 -10 -8 l30 -7 -25 -9 c-14
-5 -28 -8 -32 -7 -5 1 -8 -2 -8 -8 0 -14 1 -13 60 14 l52 24 -50 26 c-65 33
-82 33 -22 1z"/>
<path d="M993 1043 c15 -2 37 -2 50 0 12 2 0 4 -28 4 -27 0 -38 -2 -22 -4z"/>
<path d="M1133 1043 c15 -2 37 -2 50 0 12 2 0 4 -28 4 -27 0 -38 -2 -22 -4z"/>
<path d="M1273 1043 c15 -2 37 -2 50 0 12 2 0 4 -28 4 -27 0 -38 -2 -22 -4z"/>
<path d="M1413 1043 c15 -2 37 -2 50 0 12 2 0 4 -28 4 -27 0 -38 -2 -22 -4z"/>
<path d="M3178 1043 c7 -3 16 -2 19 1 4 3 -2 6 -13 5 -11 0 -14 -3 -6 -6z"/>
<path d="M3223 1043 c9 -2 23 -2 30 0 6 3 -1 5 -18 5 -16 0 -22 -2 -12 -5z"/>
<path d="M2070 996 c0 -8 -7 -16 -15 -20 -8 -3 -15 -17 -15 -31 0 -18 5 -25
20 -25 17 0 20 7 20 45 0 25 -2 45 -5 45 -3 0 -5 -6 -5 -14z m0 -46 c0 -11 -4
-20 -10 -20 -5 0 -10 9 -10 20 0 11 5 20 10 20 6 0 10 -9 10 -20z"/>
<path d="M2810 989 c-6 -11 -10 -27 -8 -35 2 -8 8 1 14 20 12 40 10 46 -6 15z"/>
<path d="M2510 960 c0 -37 2 -40 28 -39 23 2 24 2 5 6 -13 2 -23 11 -23 18 0
7 10 16 23 18 l22 4 -22 2 c-13 0 -23 5 -23 10 0 5 10 12 23 14 19 4 18 4 -5
6 -26 1 -28 -2 -28 -39z"/>
<path d="M2571 973 c1 -17 3 -21 6 -10 2 9 9 14 15 11 6 -4 9 -1 6 6 -9 27
-28 22 -27 -7z"/>
<path d="M2621 977 c0 -18 -5 -26 -12 -21 -6 4 -5 -3 2 -17 l14 -24 3 23 c2
12 1 32 -1 45 -4 18 -4 17 -6 -6z"/>
<path d="M2654 960 c1 -28 5 -35 21 -35 16 0 20 7 21 40 l1 40 -4 -37 c-5 -48
-30 -51 -36 -5 -4 32 -4 32 -3 -3z"/>
<path d="M2720 958 c0 -49 5 -47 13 5 3 20 2 37 -4 37 -5 0 -9 -19 -9 -42z"/>
<path d="M2777 963 c8 -52 13 -54 13 -5 0 23 -4 42 -9 42 -6 0 -7 -17 -4 -37z"/>
<path d="M1814 971 c18 -7 18 -8 3 -14 -24 -9 -21 -37 3 -37 16 0 20 7 20 30
0 25 -4 30 -22 29 -21 0 -21 -1 -4 -8z m16 -31 c0 -5 -4 -10 -10 -10 -5 0 -10
5 -10 10 0 6 5 10 10 10 6 0 10 -4 10 -10z"/>
<path d="M1867 973 c-15 -14 -7 -53 11 -54 15 0 14 -2 -3 -10 l-20 -9 20 3
c15 2 21 11 23 40 2 26 -1 37 -11 37 -7 0 -17 -3 -20 -7z m23 -23 c0 -11 -4
-20 -10 -20 -5 0 -10 9 -10 20 0 11 5 20 10 20 6 0 10 -9 10 -20z"/>
<path d="M1924 965 c-9 -23 3 -45 23 -44 17 1 17 2 1 6 -22 5 -24 23 -3 23 8
0 15 7 15 15 0 8 -7 15 -15 15 -9 0 -18 -7 -21 -15z"/>
<path d="M1981 948 c2 -31 2 -31 6 -5 2 15 8 27 13 27 5 0 11 -12 13 -27 4
-26 4 -26 6 5 1 26 -3 32 -19 32 -16 0 -20 -6 -19 -32z"/>
<path d="M2164 965 c-9 -23 3 -45 23 -44 17 1 17 2 1 6 -22 5 -24 23 -3 23 8
0 15 7 15 15 0 8 -7 15 -15 15 -9 0 -18 -7 -21 -15z"/>
<path d="M2219 968 c11 -15 11 -21 0 -35 -11 -15 -11 -16 1 -6 11 10 17 10 29
0 14 -11 14 -10 2 6 -11 14 -11 20 0 35 12 15 12 16 -2 5 -12 -10 -18 -10 -29
0 -12 10 -12 9 -1 -5z"/>
<path d="M2284 971 c18 -7 18 -8 3 -14 -24 -9 -21 -37 3 -37 16 0 20 7 20 30
0 25 -4 30 -22 29 -21 0 -21 -1 -4 -8z m16 -31 c0 -5 -4 -10 -10 -10 -5 0 -10
5 -10 10 0 6 5 10 10 10 6 0 10 -4 10 -10z"/>
<path d="M2331 947 c2 -31 2 -31 6 -4 2 15 8 27 13 27 5 0 11 -12 13 -27 l4
-28 2 28 c0 15 5 27 10 27 5 0 12 -12 14 -27 4 -27 4 -27 6 4 1 29 -1 31 -34
31 -33 0 -35 -2 -34 -31z"/>
<path d="M2424 965 c-9 -23 3 -45 23 -44 17 1 17 2 1 6 -22 5 -24 23 -3 23 8
0 15 7 15 15 0 8 -7 15 -15 15 -9 0 -18 -7 -21 -15z"/>
<path d="M2746 957 c3 -10 9 -15 12 -12 3 3 0 11 -7 18 -10 9 -11 8 -5 -6z"/>
<path d="M2810 921 c0 -6 4 -13 10 -16 6 -3 7 1 4 9 -7 18 -14 21 -14 7z"/>
<path d="M2103 903 c9 -2 25 -2 35 0 9 3 1 5 -18 5 -19 0 -27 -2 -17 -5z"/>
<path d="M2270 766 c0 -8 -7 -17 -16 -20 -21 -8 -14 -50 9 -54 14 -3 17 4 17
42 0 25 -2 46 -5 46 -3 0 -5 -6 -5 -14z m0 -46 c0 -11 -4 -20 -10 -20 -5 0
-10 9 -10 20 0 11 5 20 10 20 6 0 10 -9 10 -20z"/>
<path d="M2335 730 c0 -22 5 -40 10 -40 6 0 10 18 10 40 0 22 -4 40 -10 40 -5
0 -10 -18 -10 -40z"/>
<path d="M2370 758 c0 -8 7 -15 15 -15 18 0 15 19 -3 25 -7 2 -12 -3 -12 -10z"/>
<path d="M2421 747 c0 -18 -5 -26 -12 -21 -6 4 -5 -3 2 -17 l14 -24 3 23 c2
12 1 32 -1 45 -4 18 -4 17 -6 -6z"/>
<path d="M2453 763 c12 -3 17 -16 19 -41 l1 -37 4 35 c3 19 10 38 16 42 7 4
-4 7 -23 7 -19 -1 -27 -3 -17 -6z"/>
<path d="M1801 723 c-1 -27 3 -33 19 -33 16 0 20 6 19 33 -2 30 -2 30 -6 5 -2
-16 -8 -28 -13 -28 -5 0 -11 12 -13 28 -4 25 -4 25 -6 -5z"/>
<path d="M1864 739 c-4 -7 1 -16 12 -22 17 -10 17 -11 -1 -18 -16 -6 -17 -8
-3 -8 25 -1 33 20 12 32 -17 10 -17 11 1 18 16 6 17 8 3 8 -9 1 -20 -4 -24
-10z"/>
<path d="M1911 723 c-1 -27 3 -33 19 -33 16 0 20 6 19 33 -2 30 -2 30 -6 5 -2
-16 -8 -28 -13 -28 -5 0 -11 12 -13 28 -4 25 -4 25 -6 -5z"/>
<path d="M1988 743 c10 -4 9 -8 -4 -17 -19 -14 -11 -36 12 -36 9 0 14 11 14
30 0 22 -5 30 -17 29 -12 0 -13 -2 -5 -6z m12 -33 c0 -5 -4 -10 -10 -10 -5 0
-10 5 -10 10 0 6 5 10 10 10 6 0 10 -4 10 -10z"/>
<path d="M2031 718 c2 -28 2 -29 6 -8 3 14 10 28 17 32 7 5 5 8 -6 8 -14 0
-18 -8 -17 -32z"/>
<path d="M2072 720 c0 -19 2 -27 5 -17 2 9 2 25 0 35 -3 9 -5 1 -5 -18z"/>
<path d="M2094 736 c-9 -24 4 -48 23 -44 12 2 18 12 18 28 0 29 -32 41 -41 16z
m36 -16 c0 -21 -15 -27 -25 -10 -7 12 2 30 16 30 5 0 9 -9 9 -20z"/>
<path d="M2212 720 c0 -19 2 -27 5 -17 2 9 2 25 0 35 -3 9 -5 1 -5 -18z"/>
<path d="M2371 714 c0 -11 3 -14 6 -6 3 7 2 16 -1 19 -3 4 -6 -2 -5 -13z"/>
<path d="M2163 673 c9 -2 25 -2 35 0 9 3 1 5 -18 5 -19 0 -27 -2 -17 -5z"/>
<path d="M1980 536 c0 -8 -7 -16 -15 -20 -8 -3 -15 -17 -15 -31 0 -18 5 -25
20 -25 17 0 20 7 20 45 0 25 -2 45 -5 45 -3 0 -5 -6 -5 -14z m0 -46 c0 -11 -4
-20 -10 -20 -5 0 -10 9 -10 20 0 11 5 20 10 20 6 0 10 -9 10 -20z"/>
<path d="M2100 536 c0 -8 -7 -16 -15 -20 -8 -3 -15 -17 -15 -31 0 -18 5 -25
20 -25 17 0 20 7 20 45 0 25 -2 45 -5 45 -3 0 -5 -6 -5 -14z m0 -46 c0 -11 -4
-20 -10 -20 -5 0 -10 9 -10 20 0 11 5 20 10 20 6 0 10 -9 10 -20z"/>
<path d="M2300 536 c0 -8 -7 -17 -16 -20 -21 -8 -14 -50 9 -54 14 -3 17 4 17
42 0 25 -2 46 -5 46 -3 0 -5 -6 -5 -14z m0 -46 c0 -11 -4 -20 -10 -20 -5 0
-10 9 -10 20 0 11 5 20 10 20 6 0 10 -9 10 -20z"/>
<path d="M2365 500 c0 -22 5 -40 10 -40 6 0 10 18 10 40 0 22 -4 40 -10 40 -5
0 -10 -18 -10 -40z"/>
<path d="M2410 501 c0 -23 2 -41 4 -41 8 0 12 71 4 76 -4 3 -8 -13 -8 -35z"/>
<path d="M2447 508 c-3 -18 -1 -37 4 -42 5 -6 9 7 9 32 0 50 -6 54 -13 10z"/>
<path d="M2483 533 c12 -3 17 -16 19 -41 l1 -37 4 35 c3 19 10 38 16 42 7 4
-4 7 -23 7 -19 -1 -27 -3 -17 -6z"/>
<path d="M1801 493 c-1 -27 3 -33 19 -33 16 0 20 6 19 33 -2 30 -2 30 -6 5 -2
-16 -8 -28 -13 -28 -5 0 -11 12 -13 28 -4 25 -4 25 -6 -5z"/>
<path d="M1861 488 c1 -28 2 -29 7 -10 4 13 12 23 17 23 6 0 13 -10 17 -23 6
-19 7 -18 5 7 -2 23 -7 31 -24 33 -20 3 -23 -1 -22 -30z"/>
<path d="M1922 490 c0 -19 2 -27 5 -17 2 9 2 25 0 35 -3 9 -5 1 -5 -18z"/>
<path d="M2025 511 c17 -8 18 -10 3 -10 -27 -1 -24 -41 3 -41 16 0 20 5 17 27
-2 19 -9 29 -23 30 l-20 3 20 -9z m15 -31 c0 -5 -4 -10 -10 -10 -5 0 -10 5
-10 10 0 6 5 10 10 10 6 0 10 -4 10 -10z"/>
<path d="M2134 505 c-9 -23 3 -45 23 -44 17 1 17 2 1 6 -22 5 -24 23 -3 23 8
0 15 7 15 15 0 8 -7 15 -15 15 -9 0 -18 -7 -21 -15z"/>
<path d="M2242 490 c0 -19 2 -27 5 -17 2 9 2 25 0 35 -3 9 -5 1 -5 -18z"/>
<path d="M2193 443 c9 -2 25 -2 35 0 9 3 1 5 -18 5 -19 0 -27 -2 -17 -5z"/>
<path d="M2870 290 l0 -41 30 18 c17 9 30 21 30 25 0 4 -13 14 -30 23 l-30 16
0 -41z"/>
</g>
</svg>
