<svg width="325" height="109" viewBox="0 0 325 109" fill="none" xmlns="http://www.w3.org/2000/svg">
<path d="M44.2268 69.3166H21.1255L16.7134 80.0299H4.91992L27.1055 30.0577H38.4688L60.7238 80.0299H48.639L44.2268 69.3166ZM40.6055 60.5398L32.7109 41.4118L24.8301 60.5398H40.6055Z" fill="white"/>
<path d="M94.7051 54.2567H105.222V74.527C102.52 76.5819 99.3948 78.1561 95.8429 79.2498C92.291 80.3364 88.7113 80.8797 85.1039 80.8797C79.9425 80.8797 75.298 79.7757 71.1737 77.5641C67.046 75.3559 63.8097 72.284 61.4615 68.3553C59.1201 64.4267 57.9512 59.993 57.9512 55.0508C57.9512 50.1016 59.1201 45.6609 61.4615 41.7323C63.8097 37.8036 67.0703 34.7352 71.2431 32.5235C75.4124 30.3154 80.109 29.2078 85.3259 29.2078C89.6825 29.2078 93.6368 29.9462 97.1887 31.4229C100.748 32.8927 103.738 35.0312 106.152 37.8454L98.7565 44.6997C95.2046 40.9382 90.9174 39.0574 85.8947 39.0574C82.7105 39.0574 79.887 39.7261 77.4173 41.0635C74.9546 42.394 73.0364 44.2678 71.6593 46.6919C70.2892 49.1159 69.6059 51.9022 69.6059 55.0508C69.6059 58.1436 70.2892 60.902 71.6593 63.3261C73.0364 65.7501 74.9476 67.6413 77.3896 68.9962C79.8315 70.3545 82.6134 71.0302 85.7421 71.0302C89.0616 71.0302 92.0481 70.3197 94.7051 68.8987V54.2567Z" fill="white"/>
<path d="M149.577 70.7515V80.0299H111.047V30.0577H148.661V39.336H122.493V50.1887H145.609V59.1884H122.493V70.7515H149.577Z" fill="white"/>
<path d="M199.559 30.0577V80.0299H190.097L165.289 49.6871V80.0299H153.912V30.0577H163.444L188.182 60.4004V30.0577H199.559Z" fill="white"/>
<path d="M206.516 30.0577H229.131C234.532 30.0577 239.305 31.0956 243.45 33.1644C247.602 35.2367 250.824 38.1519 253.121 41.9134C255.424 45.6749 256.575 50.0563 256.575 55.0508C256.575 60.0487 255.424 64.4267 253.121 68.1882C250.824 71.9427 247.602 74.8544 243.45 76.9232C239.305 78.9955 234.532 80.0299 229.131 80.0299H206.516V30.0577ZM228.562 70.5426C233.537 70.5426 237.505 69.1494 240.467 66.3631C243.426 63.5768 244.907 59.8084 244.907 55.0508C244.907 50.2862 243.426 46.5177 240.467 43.7384C237.505 40.9521 233.537 39.5589 228.562 39.5589H218.032V70.5426H228.562Z" fill="white"/>
<mask id="mask0_223_133" style="mask-type:luminance" maskUnits="userSpaceOnUse" x="257" y="28" width="62" height="54">
<path d="M257.219 28.1381H318.784V81.7848H257.219V28.1381Z" fill="white"/>
</mask>
<g mask="url(#mask0_223_133)">
<path d="M315.915 35.8597C312.839 31.0777 307.015 28.1347 301.264 28.4516C295.832 28.7476 290.67 31.9345 287.989 36.5667C285.311 31.9345 280.15 28.7476 274.718 28.4516C268.967 28.1347 263.143 31.0777 260.066 35.8597C258.072 38.9525 257.219 42.6861 257.378 46.3431C257.808 56.0917 264.766 64.1894 271.718 70.5108C276.612 74.9619 282.096 78.7896 287.993 81.8545C293.886 78.7896 299.37 74.9619 304.264 70.5108C311.215 64.1894 318.173 56.0917 318.604 46.3431C318.763 42.6861 317.906 38.9525 315.915 35.8597Z" fill="#4BC997"/>
</g>
<mask id="mask1_223_133" style="mask-type:luminance" maskUnits="userSpaceOnUse" x="276" y="49" width="24" height="9">
<path d="M276.741 49.0389H299.939V57.955H276.741V49.0389Z" fill="white"/>
</mask>
<g mask="url(#mask1_223_133)">
<path d="M300.276 49.5717V57.9376H276.741V49.5717H300.276Z" fill="#1F1F1F"/>
</g>
<mask id="mask2_223_133" style="mask-type:luminance" maskUnits="userSpaceOnUse" x="284" y="41" width="10" height="25">
<path d="M284.153 41.9373H293.033V65.2342H284.153V41.9373Z" fill="white"/>
</mask>
<g mask="url(#mask2_223_133)">
<path d="M284.34 41.9373H292.676V65.5686H284.34V41.9373Z" fill="#1F1F1F"/>
</g>
</svg>
