<svg xmlns="http://www.w3.org/2000/svg" xmlns:xlink="http://www.w3.org/1999/xlink" width="488" zoomAndPan="magnify" viewBox="0 0 366 122.249994" height="163" preserveAspectRatio="xMidYMid meet" version="1.0"><defs><g/><clipPath id="1b4df1d57a"><path d="M 262 24.082031 L 355.835938 24.082031 L 355.835938 97 L 262 97 Z M 262 24.082031 " clip-rule="nonzero"/></clipPath><clipPath id="1719bece57"><path d="M 1.117188 104 L 9 104 L 9 114 L 1.117188 114 Z M 1.117188 104 " clip-rule="nonzero"/></clipPath><clipPath id="4018391054"><path d="M 357 104 L 364.882812 104 L 364.882812 114 L 357 114 Z M 357 104 " clip-rule="nonzero"/></clipPath></defs><g clip-path="url(#1b4df1d57a)"><path fill="#ffffff" d="M 304.199219 39.867188 C 305.121094 38.070312 305.765625 36.640625 306.554688 35.296875 C 309.632812 30.058594 313.816406 26.144531 320.011719 25.132812 C 325.066406 24.308594 329.953125 25.167969 334.507812 27.578125 C 340.523438 30.761719 343.980469 35.882812 345.347656 42.429688 C 346.4375 47.648438 345.847656 52.800781 344.171875 57.835938 C 343.984375 58.402344 343.730469 58.949219 343.472656 59.589844 C 336.113281 59.589844 328.800781 59.589844 321.222656 59.589844 C 320.699219 58.617188 320.082031 57.515625 319.503906 56.390625 C 318.671875 54.78125 317.84375 53.171875 317.070312 51.535156 C 316.410156 50.140625 315.5 49.027344 313.84375 49.132812 C 312.234375 49.234375 311.394531 50.324219 310.855469 51.820312 C 309.375 55.941406 307.792969 60.023438 306.246094 64.121094 C 306.113281 64.46875 305.957031 64.808594 305.691406 65.441406 C 305.371094 64.832031 305.101562 64.445312 304.960938 64.015625 C 303.097656 58.433594 301.253906 52.84375 299.402344 47.253906 C 299.285156 46.894531 299.203125 46.527344 299.0625 46.175781 C 298.542969 44.878906 297.648438 43.984375 296.199219 43.972656 C 294.785156 43.960938 293.785156 44.703125 293.246094 46.035156 C 291.890625 49.398438 290.535156 52.757812 289.167969 56.113281 C 288.714844 57.230469 288.234375 58.332031 287.65625 59.699219 C 286.804688 59.699219 285.917969 59.695312 285.03125 59.699219 C 282.839844 59.703125 280.644531 59.644531 278.457031 59.734375 C 276.710938 59.808594 275.621094 60.996094 275.582031 62.625 C 275.542969 64.164062 276.496094 65.375 278.050781 65.691406 C 278.488281 65.777344 278.953125 65.765625 279.402344 65.769531 C 282.652344 65.773438 285.902344 65.726562 289.148438 65.785156 C 291.082031 65.824219 292.261719 64.980469 292.933594 63.199219 C 293.789062 60.949219 294.734375 58.734375 295.8125 56.082031 C 296.285156 57.417969 296.636719 58.359375 296.949219 59.3125 C 298.753906 64.761719 300.550781 70.207031 302.335938 75.65625 C 302.796875 77.054688 303.535156 78.085938 305.15625 78.175781 C 306.746094 78.261719 307.722656 77.644531 308.390625 75.914062 C 309.640625 72.675781 310.832031 69.414062 312.050781 66.164062 C 312.789062 64.1875 313.53125 62.214844 314.394531 59.90625 C 315.003906 61.097656 315.554688 61.964844 315.910156 62.910156 C 316.71875 65.050781 318.183594 65.824219 320.460938 65.808594 C 330.8125 65.726562 341.167969 65.769531 351.519531 65.773438 C 352.273438 65.773438 353.039062 65.730469 353.785156 65.828125 C 354.949219 65.980469 355.769531 66.910156 355.777344 67.949219 C 355.785156 68.972656 354.972656 69.921875 353.820312 70.117188 C 353.230469 70.214844 352.617188 70.171875 352.011719 70.175781 C 347.703125 70.179688 343.398438 70.199219 339.089844 70.171875 C 338.121094 70.164062 337.410156 70.382812 336.761719 71.210938 C 329.921875 79.953125 321.332031 86.6875 312.003906 92.546875 C 309.894531 93.875 307.695312 95.054688 305.554688 96.332031 C 304.703125 96.835938 303.9375 96.902344 303.027344 96.394531 C 291.527344 89.988281 280.90625 82.472656 272.480469 72.199219 C 268.070312 66.820312 264.664062 60.890625 263.257812 53.992188 C 261.886719 47.25 262.4375 40.707031 266.175781 34.773438 C 269.984375 28.730469 275.742188 25.726562 282.730469 24.988281 C 291.398438 24.078125 297.5625 27.953125 301.890625 35.214844 C 302.316406 35.925781 302.671875 36.679688 303.039062 37.421875 C 303.371094 38.089844 303.683594 38.769531 304.199219 39.867188 Z M 304.199219 39.867188 " fill-opacity="1" fill-rule="nonzero"/></g><g fill="#ffffff" fill-opacity="1"><g transform="translate(5.857212, 96.620981)"><g><path d="M 31.628906 1.015625 C 26.136719 1.015625 20.832031 0.238281 15.714844 -1.320312 C 10.59375 -2.882812 6.542969 -4.949219 3.558594 -7.527344 L 8.136719 -17.796875 C 11.050781 -15.492188 14.628906 -13.613281 18.867188 -12.152344 C 23.105469 -10.695312 27.359375 -9.96875 31.628906 -9.96875 C 36.917969 -9.96875 40.867188 -10.816406 43.480469 -12.511719 C 46.089844 -14.203125 47.394531 -16.441406 47.394531 -19.222656 C 47.394531 -21.257812 46.667969 -22.933594 45.207031 -24.257812 C 43.75 -25.578125 41.902344 -26.613281 39.664062 -27.359375 C 37.429688 -28.105469 34.375 -28.953125 30.511719 -29.902344 C 25.085938 -31.191406 20.695312 -32.476562 17.339844 -33.765625 C 13.984375 -35.054688 11.101562 -37.070312 8.695312 -39.816406 C 6.289062 -42.5625 5.085938 -46.277344 5.085938 -50.953125 C 5.085938 -54.886719 6.152344 -58.464844 8.289062 -61.683594 C 10.425781 -64.90625 13.644531 -67.464844 17.949219 -69.363281 C 22.257812 -71.261719 27.527344 -72.210938 33.765625 -72.210938 C 38.105469 -72.210938 42.378906 -71.667969 46.582031 -70.582031 C 50.785156 -69.5 54.414062 -67.941406 57.464844 -65.90625 L 53.292969 -55.632812 C 50.175781 -57.464844 46.921875 -58.855469 43.53125 -59.804688 C 40.140625 -60.753906 36.851562 -61.226562 33.664062 -61.226562 C 28.445312 -61.226562 24.5625 -60.34375 22.019531 -58.582031 C 19.476562 -56.820312 18.207031 -54.480469 18.207031 -51.566406 C 18.207031 -49.53125 18.933594 -47.871094 20.390625 -46.582031 C 21.851562 -45.292969 23.699219 -44.277344 25.933594 -43.53125 C 28.171875 -42.785156 31.222656 -41.9375 35.089844 -40.988281 C 40.378906 -39.765625 44.714844 -38.496094 48.105469 -37.171875 C 51.496094 -35.851562 54.394531 -33.835938 56.800781 -31.121094 C 59.210938 -28.410156 60.414062 -24.75 60.414062 -20.136719 C 60.414062 -16.207031 59.34375 -12.644531 57.210938 -9.457031 C 55.074219 -6.273438 51.835938 -3.730469 47.496094 -1.832031 C 43.15625 0.0664062 37.867188 1.015625 31.628906 1.015625 Z M 31.628906 1.015625 "/></g></g></g><g fill="#ffffff" fill-opacity="1"><g transform="translate(62.913997, 96.620981)"><g><path d="M 55.734375 -16.476562 L 20.136719 -16.476562 L 13.121094 0 L -0.507812 0 L 31.527344 -71.195312 L 44.546875 -71.195312 L 76.6875 0 L 62.855469 0 Z M 51.363281 -26.851562 L 37.9375 -57.972656 L 24.613281 -26.851562 Z M 51.363281 -26.851562 "/></g></g></g><g fill="#ffffff" fill-opacity="1"><g transform="translate(132.175487, 96.620981)"><g><path d="M 38.851562 -71.195312 C 45.023438 -71.195312 50.394531 -70.175781 54.972656 -68.144531 C 59.546875 -66.109375 63.058594 -63.191406 65.5 -59.394531 C 67.941406 -55.597656 69.160156 -51.089844 69.160156 -45.871094 C 69.160156 -40.714844 67.941406 -36.222656 65.5 -32.394531 C 63.058594 -28.5625 59.546875 -25.628906 54.972656 -23.597656 C 50.394531 -21.5625 45.023438 -20.542969 38.851562 -20.542969 L 22.78125 -20.542969 L 22.78125 0 L 9.558594 0 L 9.558594 -71.195312 Z M 38.242188 -31.730469 C 44.003906 -31.730469 48.378906 -32.953125 51.363281 -35.394531 C 54.34375 -37.835938 55.835938 -41.328125 55.835938 -45.871094 C 55.835938 -50.414062 54.34375 -53.902344 51.363281 -56.34375 C 48.378906 -58.785156 44.003906 -60.007812 38.242188 -60.007812 L 22.78125 -60.007812 L 22.78125 -31.730469 Z M 38.242188 -31.730469 "/></g></g></g><g fill="#ffffff" fill-opacity="1"><g transform="translate(199.097735, 96.620981)"><g><path d="M 31.628906 1.015625 C 26.136719 1.015625 20.832031 0.238281 15.714844 -1.320312 C 10.59375 -2.882812 6.542969 -4.949219 3.558594 -7.527344 L 8.136719 -17.796875 C 11.050781 -15.492188 14.628906 -13.613281 18.867188 -12.152344 C 23.105469 -10.695312 27.359375 -9.96875 31.628906 -9.96875 C 36.917969 -9.96875 40.867188 -10.816406 43.480469 -12.511719 C 46.089844 -14.203125 47.394531 -16.441406 47.394531 -19.222656 C 47.394531 -21.257812 46.667969 -22.933594 45.207031 -24.257812 C 43.75 -25.578125 41.902344 -26.613281 39.664062 -27.359375 C 37.429688 -28.105469 34.375 -28.953125 30.511719 -29.902344 C 25.085938 -31.191406 20.695312 -32.476562 17.339844 -33.765625 C 13.984375 -35.054688 11.101562 -37.070312 8.695312 -39.816406 C 6.289062 -42.5625 5.085938 -46.277344 5.085938 -50.953125 C 5.085938 -54.886719 6.152344 -58.464844 8.289062 -61.683594 C 10.425781 -64.90625 13.644531 -67.464844 17.949219 -69.363281 C 22.257812 -71.261719 27.527344 -72.210938 33.765625 -72.210938 C 38.105469 -72.210938 42.378906 -71.667969 46.582031 -70.582031 C 50.785156 -69.5 54.414062 -67.941406 57.464844 -65.90625 L 53.292969 -55.632812 C 50.175781 -57.464844 46.921875 -58.855469 43.53125 -59.804688 C 40.140625 -60.753906 36.851562 -61.226562 33.664062 -61.226562 C 28.445312 -61.226562 24.5625 -60.34375 22.019531 -58.582031 C 19.476562 -56.820312 18.207031 -54.480469 18.207031 -51.566406 C 18.207031 -49.53125 18.933594 -47.871094 20.390625 -46.582031 C 21.851562 -45.292969 23.699219 -44.277344 25.933594 -43.53125 C 28.171875 -42.785156 31.222656 -41.9375 35.089844 -40.988281 C 40.378906 -39.765625 44.714844 -38.496094 48.105469 -37.171875 C 51.496094 -35.851562 54.394531 -33.835938 56.800781 -31.121094 C 59.210938 -28.410156 60.414062 -24.75 60.414062 -20.136719 C 60.414062 -16.207031 59.34375 -12.644531 57.210938 -9.457031 C 55.074219 -6.273438 51.835938 -3.730469 47.496094 -1.832031 C 43.15625 0.0664062 37.867188 1.015625 31.628906 1.015625 Z M 31.628906 1.015625 "/></g></g></g><g clip-path="url(#1719bece57)"><g fill="#ffffff" fill-opacity="1"><g transform="translate(1.137994, 113.654673)"><g><path d="M 4.195312 0.0820312 C 3.484375 0.0820312 2.804688 -0.03125 2.152344 -0.257812 C 1.5 -0.488281 0.996094 -0.789062 0.640625 -1.160156 L 1.039062 -1.941406 C 1.386719 -1.59375 1.84375 -1.316406 2.417969 -1.101562 C 2.992188 -0.886719 3.585938 -0.777344 4.195312 -0.777344 C 5.054688 -0.777344 5.695312 -0.9375 6.125 -1.25 C 6.550781 -1.566406 6.765625 -1.972656 6.765625 -2.472656 C 6.765625 -2.855469 6.648438 -3.160156 6.417969 -3.390625 C 6.183594 -3.617188 5.898438 -3.792969 5.5625 -3.917969 C 5.226562 -4.039062 4.757812 -4.171875 4.15625 -4.320312 C 3.433594 -4.5 2.859375 -4.675781 2.433594 -4.84375 C 2.003906 -5.015625 1.636719 -5.273438 1.332031 -5.617188 C 1.027344 -5.964844 0.875 -6.433594 0.875 -7.027344 C 0.875 -7.507812 1.003906 -7.949219 1.257812 -8.34375 C 1.511719 -8.742188 1.90625 -9.058594 2.433594 -9.292969 C 2.960938 -9.53125 3.617188 -9.648438 4.402344 -9.648438 C 4.949219 -9.648438 5.484375 -9.574219 6.007812 -9.425781 C 6.53125 -9.273438 6.984375 -9.066406 7.367188 -8.800781 L 7.027344 -7.996094 C 6.625 -8.261719 6.195312 -8.457031 5.742188 -8.589844 C 5.285156 -8.722656 4.839844 -8.789062 4.402344 -8.789062 C 3.5625 -8.789062 2.933594 -8.628906 2.507812 -8.304688 C 2.085938 -7.980469 1.871094 -7.5625 1.871094 -7.054688 C 1.871094 -6.671875 1.988281 -6.363281 2.222656 -6.128906 C 2.453125 -5.898438 2.746094 -5.71875 3.097656 -5.597656 C 3.445312 -5.472656 3.917969 -5.339844 4.511719 -5.195312 C 5.210938 -5.019531 5.78125 -4.851562 6.210938 -4.679688 C 6.644531 -4.511719 7.011719 -4.257812 7.3125 -3.917969 C 7.613281 -3.574219 7.765625 -3.113281 7.765625 -2.527344 C 7.765625 -2.046875 7.632812 -1.605469 7.375 -1.210938 C 7.113281 -0.8125 6.714844 -0.5 6.179688 -0.265625 C 5.640625 -0.0351562 4.980469 0.0820312 4.195312 0.0820312 Z M 4.195312 0.0820312 "/></g></g></g></g><g fill="#ffffff" fill-opacity="1"><g transform="translate(9.542801, 113.654673)"><g><path d="M 1.558594 -9.566406 L 2.570312 -9.566406 L 2.570312 0 L 1.558594 0 Z M 1.558594 -9.566406 "/></g></g></g><g fill="#ffffff" fill-opacity="1"><g transform="translate(13.670035, 113.654673)"><g><path d="M 4.195312 0.0820312 C 3.484375 0.0820312 2.804688 -0.03125 2.152344 -0.257812 C 1.5 -0.488281 0.996094 -0.789062 0.640625 -1.160156 L 1.039062 -1.941406 C 1.386719 -1.59375 1.84375 -1.316406 2.417969 -1.101562 C 2.992188 -0.886719 3.585938 -0.777344 4.195312 -0.777344 C 5.054688 -0.777344 5.695312 -0.9375 6.125 -1.25 C 6.550781 -1.566406 6.765625 -1.972656 6.765625 -2.472656 C 6.765625 -2.855469 6.648438 -3.160156 6.417969 -3.390625 C 6.183594 -3.617188 5.898438 -3.792969 5.5625 -3.917969 C 5.226562 -4.039062 4.757812 -4.171875 4.15625 -4.320312 C 3.433594 -4.5 2.859375 -4.675781 2.433594 -4.84375 C 2.003906 -5.015625 1.636719 -5.273438 1.332031 -5.617188 C 1.027344 -5.964844 0.875 -6.433594 0.875 -7.027344 C 0.875 -7.507812 1.003906 -7.949219 1.257812 -8.34375 C 1.511719 -8.742188 1.90625 -9.058594 2.433594 -9.292969 C 2.960938 -9.53125 3.617188 -9.648438 4.402344 -9.648438 C 4.949219 -9.648438 5.484375 -9.574219 6.007812 -9.425781 C 6.53125 -9.273438 6.984375 -9.066406 7.367188 -8.800781 L 7.027344 -7.996094 C 6.625 -8.261719 6.195312 -8.457031 5.742188 -8.589844 C 5.285156 -8.722656 4.839844 -8.789062 4.402344 -8.789062 C 3.5625 -8.789062 2.933594 -8.628906 2.507812 -8.304688 C 2.085938 -7.980469 1.871094 -7.5625 1.871094 -7.054688 C 1.871094 -6.671875 1.988281 -6.363281 2.222656 -6.128906 C 2.453125 -5.898438 2.746094 -5.71875 3.097656 -5.597656 C 3.445312 -5.472656 3.917969 -5.339844 4.511719 -5.195312 C 5.210938 -5.019531 5.78125 -4.851562 6.210938 -4.679688 C 6.644531 -4.511719 7.011719 -4.257812 7.3125 -3.917969 C 7.613281 -3.574219 7.765625 -3.113281 7.765625 -2.527344 C 7.765625 -2.046875 7.632812 -1.605469 7.375 -1.210938 C 7.113281 -0.8125 6.714844 -0.5 6.179688 -0.265625 C 5.640625 -0.0351562 4.980469 0.0820312 4.195312 0.0820312 Z M 4.195312 0.0820312 "/></g></g></g><g fill="#ffffff" fill-opacity="1"><g transform="translate(21.938162, 113.654673)"><g><path d="M 3.417969 -8.691406 L 0.0546875 -8.691406 L 0.0546875 -9.566406 L 7.792969 -9.566406 L 7.792969 -8.691406 L 4.429688 -8.691406 L 4.429688 0 L 3.417969 0 Z M 3.417969 -8.691406 "/></g></g></g><g fill="#ffffff" fill-opacity="1"><g transform="translate(29.782652, 113.654673)"><g><path d="M 8.324219 -0.875 L 8.324219 0 L 1.558594 0 L 1.558594 -9.566406 L 8.117188 -9.566406 L 8.117188 -8.691406 L 2.570312 -8.691406 L 2.570312 -5.289062 L 7.519531 -5.289062 L 7.519531 -4.429688 L 2.570312 -4.429688 L 2.570312 -0.875 Z M 8.324219 -0.875 "/></g></g></g><g fill="#ffffff" fill-opacity="1"><g transform="translate(38.925447, 113.654673)"><g><path d="M 11.496094 -9.566406 L 11.496094 0 L 10.523438 0 L 10.523438 -7.65625 L 6.765625 -1.214844 L 6.289062 -1.214844 L 2.527344 -7.613281 L 2.527344 0 L 1.558594 0 L 1.558594 -9.566406 L 2.390625 -9.566406 L 6.546875 -2.472656 L 10.660156 -9.566406 Z M 11.496094 -9.566406 "/></g></g></g><g fill="#ffffff" fill-opacity="1"><g transform="translate(51.976817, 113.654673)"><g><path d="M 7.558594 -2.554688 L 2.226562 -2.554688 L 1.078125 0 L 0.0273438 0 L 4.402344 -9.566406 L 5.398438 -9.566406 L 9.773438 0 L 8.707031 0 Z M 7.191406 -3.375 L 4.894531 -8.515625 L 2.597656 -3.375 Z M 7.191406 -3.375 "/></g></g></g><g fill="#ffffff" fill-opacity="1"><g transform="translate(61.775588, 113.654673)"><g/></g></g><g fill="#ffffff" fill-opacity="1"><g transform="translate(65.356175, 113.654673)"><g><path d="M 1.558594 -9.566406 L 5.453125 -9.566406 C 6.464844 -9.566406 7.359375 -9.367188 8.132812 -8.960938 C 8.90625 -8.554688 9.507812 -7.988281 9.9375 -7.265625 C 10.367188 -6.539062 10.578125 -5.714844 10.578125 -4.785156 C 10.578125 -3.855469 10.367188 -3.027344 9.9375 -2.304688 C 9.507812 -1.578125 8.90625 -1.015625 8.132812 -0.609375 C 7.359375 -0.203125 6.464844 0 5.453125 0 L 1.558594 0 Z M 5.398438 -0.875 C 6.238281 -0.875 6.972656 -1.042969 7.601562 -1.375 C 8.226562 -1.707031 8.714844 -2.167969 9.0625 -2.753906 C 9.410156 -3.34375 9.582031 -4.019531 9.582031 -4.785156 C 9.582031 -5.550781 9.410156 -6.226562 9.0625 -6.8125 C 8.714844 -7.402344 8.226562 -7.863281 7.601562 -8.195312 C 6.972656 -8.527344 6.238281 -8.691406 5.398438 -8.691406 L 2.570312 -8.691406 L 2.570312 -0.875 Z M 5.398438 -0.875 "/></g></g></g><g fill="#ffffff" fill-opacity="1"><g transform="translate(76.644581, 113.654673)"><g><path d="M 8.324219 -0.875 L 8.324219 0 L 1.558594 0 L 1.558594 -9.566406 L 8.117188 -9.566406 L 8.117188 -8.691406 L 2.570312 -8.691406 L 2.570312 -5.289062 L 7.519531 -5.289062 L 7.519531 -4.429688 L 2.570312 -4.429688 L 2.570312 -0.875 Z M 8.324219 -0.875 "/></g></g></g><g fill="#ffffff" fill-opacity="1"><g transform="translate(85.787376, 113.654673)"><g/></g></g><g fill="#ffffff" fill-opacity="1"><g transform="translate(89.367962, 113.654673)"><g><path d="M 7.558594 -2.554688 L 2.226562 -2.554688 L 1.078125 0 L 0.0273438 0 L 4.402344 -9.566406 L 5.398438 -9.566406 L 9.773438 0 L 8.707031 0 Z M 7.191406 -3.375 L 4.894531 -8.515625 L 2.597656 -3.375 Z M 7.191406 -3.375 "/></g></g></g><g fill="#ffffff" fill-opacity="1"><g transform="translate(99.030053, 113.654673)"><g><path d="M 8.296875 -4.785156 L 9.265625 -4.785156 L 9.265625 -1.132812 C 8.820312 -0.742188 8.292969 -0.441406 7.683594 -0.230469 C 7.070312 -0.0234375 6.429688 0.0820312 5.753906 0.0820312 C 4.796875 0.0820312 3.9375 -0.128906 3.171875 -0.546875 C 2.40625 -0.964844 1.804688 -1.546875 1.367188 -2.289062 C 0.929688 -3.03125 0.710938 -3.863281 0.710938 -4.785156 C 0.710938 -5.703125 0.929688 -6.535156 1.367188 -7.277344 C 1.804688 -8.019531 2.40625 -8.601562 3.171875 -9.019531 C 3.9375 -9.441406 4.800781 -9.648438 5.769531 -9.648438 C 6.496094 -9.648438 7.167969 -9.535156 7.777344 -9.300781 C 8.386719 -9.070312 8.902344 -8.726562 9.320312 -8.269531 L 8.691406 -7.628906 C 7.9375 -8.375 6.976562 -8.746094 5.808594 -8.746094 C 5.035156 -8.746094 4.335938 -8.578125 3.710938 -8.234375 C 3.085938 -7.894531 2.597656 -7.417969 2.242188 -6.8125 C 1.886719 -6.207031 1.707031 -5.53125 1.707031 -4.785156 C 1.707031 -4.035156 1.886719 -3.363281 2.242188 -2.761719 C 2.597656 -2.160156 3.085938 -1.6875 3.703125 -1.339844 C 4.324219 -0.992188 5.019531 -0.820312 5.796875 -0.820312 C 6.78125 -0.820312 7.613281 -1.066406 8.296875 -1.558594 Z M 8.296875 -4.785156 "/></g></g></g><g fill="#ffffff" fill-opacity="1"><g transform="translate(109.594142, 113.654673)"><g><path d="M 8.324219 -0.875 L 8.324219 0 L 1.558594 0 L 1.558594 -9.566406 L 8.117188 -9.566406 L 8.117188 -8.691406 L 2.570312 -8.691406 L 2.570312 -5.289062 L 7.519531 -5.289062 L 7.519531 -4.429688 L 2.570312 -4.429688 L 2.570312 -0.875 Z M 8.324219 -0.875 "/></g></g></g><g fill="#ffffff" fill-opacity="1"><g transform="translate(118.736937, 113.654673)"><g><path d="M 9.554688 -9.566406 L 9.554688 0 L 8.71875 0 L 2.570312 -7.765625 L 2.570312 0 L 1.558594 0 L 1.558594 -9.566406 L 2.390625 -9.566406 L 8.554688 -1.804688 L 8.554688 -9.566406 Z M 9.554688 -9.566406 "/></g></g></g><g fill="#ffffff" fill-opacity="1"><g transform="translate(129.847685, 113.654673)"><g><path d="M 1.558594 -9.566406 L 5.453125 -9.566406 C 6.464844 -9.566406 7.359375 -9.367188 8.132812 -8.960938 C 8.90625 -8.554688 9.507812 -7.988281 9.9375 -7.265625 C 10.367188 -6.539062 10.578125 -5.714844 10.578125 -4.785156 C 10.578125 -3.855469 10.367188 -3.027344 9.9375 -2.304688 C 9.507812 -1.578125 8.90625 -1.015625 8.132812 -0.609375 C 7.359375 -0.203125 6.464844 0 5.453125 0 L 1.558594 0 Z M 5.398438 -0.875 C 6.238281 -0.875 6.972656 -1.042969 7.601562 -1.375 C 8.226562 -1.707031 8.714844 -2.167969 9.0625 -2.753906 C 9.410156 -3.34375 9.582031 -4.019531 9.582031 -4.785156 C 9.582031 -5.550781 9.410156 -6.226562 9.0625 -6.8125 C 8.714844 -7.402344 8.226562 -7.863281 7.601562 -8.195312 C 6.972656 -8.527344 6.238281 -8.691406 5.398438 -8.691406 L 2.570312 -8.691406 L 2.570312 -0.875 Z M 5.398438 -0.875 "/></g></g></g><g fill="#ffffff" fill-opacity="1"><g transform="translate(140.99941, 113.654673)"><g><path d="M 7.558594 -2.554688 L 2.226562 -2.554688 L 1.078125 0 L 0.0273438 0 L 4.402344 -9.566406 L 5.398438 -9.566406 L 9.773438 0 L 8.707031 0 Z M 7.191406 -3.375 L 4.894531 -8.515625 L 2.597656 -3.375 Z M 7.191406 -3.375 "/></g></g></g><g fill="#ffffff" fill-opacity="1"><g transform="translate(150.798182, 113.654673)"><g><path d="M 11.496094 -9.566406 L 11.496094 0 L 10.523438 0 L 10.523438 -7.65625 L 6.765625 -1.214844 L 6.289062 -1.214844 L 2.527344 -7.613281 L 2.527344 0 L 1.558594 0 L 1.558594 -9.566406 L 2.390625 -9.566406 L 6.546875 -2.472656 L 10.660156 -9.566406 Z M 11.496094 -9.566406 "/></g></g></g><g fill="#ffffff" fill-opacity="1"><g transform="translate(163.849552, 113.654673)"><g><path d="M 8.324219 -0.875 L 8.324219 0 L 1.558594 0 L 1.558594 -9.566406 L 8.117188 -9.566406 L 8.117188 -8.691406 L 2.570312 -8.691406 L 2.570312 -5.289062 L 7.519531 -5.289062 L 7.519531 -4.429688 L 2.570312 -4.429688 L 2.570312 -0.875 Z M 8.324219 -0.875 "/></g></g></g><g fill="#ffffff" fill-opacity="1"><g transform="translate(172.992347, 113.654673)"><g><path d="M 9.554688 -9.566406 L 9.554688 0 L 8.71875 0 L 2.570312 -7.765625 L 2.570312 0 L 1.558594 0 L 1.558594 -9.566406 L 2.390625 -9.566406 L 8.554688 -1.804688 L 8.554688 -9.566406 Z M 9.554688 -9.566406 "/></g></g></g><g fill="#ffffff" fill-opacity="1"><g transform="translate(184.103083, 113.654673)"><g><path d="M 3.417969 -8.691406 L 0.0546875 -8.691406 L 0.0546875 -9.566406 L 7.792969 -9.566406 L 7.792969 -8.691406 L 4.429688 -8.691406 L 4.429688 0 L 3.417969 0 Z M 3.417969 -8.691406 "/></g></g></g><g fill="#ffffff" fill-opacity="1"><g transform="translate(191.810892, 113.654673)"><g><path d="M 5.742188 0.0820312 C 4.792969 0.0820312 3.933594 -0.128906 3.164062 -0.554688 C 2.394531 -0.976562 1.792969 -1.558594 1.359375 -2.296875 C 0.925781 -3.035156 0.710938 -3.863281 0.710938 -4.785156 C 0.710938 -5.703125 0.925781 -6.535156 1.359375 -7.273438 C 1.792969 -8.011719 2.394531 -8.589844 3.164062 -9.015625 C 3.933594 -9.4375 4.792969 -9.648438 5.742188 -9.648438 C 6.6875 -9.648438 7.542969 -9.441406 8.304688 -9.019531 C 9.066406 -8.601562 9.664062 -8.019531 10.101562 -7.277344 C 10.539062 -6.535156 10.757812 -5.703125 10.757812 -4.785156 C 10.757812 -3.863281 10.539062 -3.03125 10.101562 -2.289062 C 9.664062 -1.546875 9.066406 -0.964844 8.304688 -0.546875 C 7.542969 -0.128906 6.6875 0.0820312 5.742188 0.0820312 Z M 5.742188 -0.820312 C 6.496094 -0.820312 7.179688 -0.992188 7.792969 -1.332031 C 8.402344 -1.675781 8.878906 -2.148438 9.226562 -2.753906 C 9.574219 -3.359375 9.746094 -4.035156 9.746094 -4.785156 C 9.746094 -5.53125 9.574219 -6.207031 9.226562 -6.8125 C 8.878906 -7.417969 8.402344 -7.894531 7.792969 -8.234375 C 7.179688 -8.578125 6.496094 -8.746094 5.742188 -8.746094 C 4.984375 -8.746094 4.296875 -8.578125 3.683594 -8.234375 C 3.070312 -7.894531 2.585938 -7.417969 2.234375 -6.8125 C 1.882812 -6.207031 1.707031 -5.53125 1.707031 -4.785156 C 1.707031 -4.035156 1.882812 -3.359375 2.234375 -2.753906 C 2.585938 -2.148438 3.070312 -1.675781 3.683594 -1.332031 C 4.296875 -0.992188 4.984375 -0.820312 5.742188 -0.820312 Z M 5.742188 -0.820312 "/></g></g></g><g fill="#ffffff" fill-opacity="1"><g transform="translate(203.276968, 113.654673)"><g/></g></g><g fill="#ffffff" fill-opacity="1"><g transform="translate(206.857555, 113.654673)"><g><path d="M 1.558594 -9.566406 L 5.453125 -9.566406 C 6.464844 -9.566406 7.359375 -9.367188 8.132812 -8.960938 C 8.90625 -8.554688 9.507812 -7.988281 9.9375 -7.265625 C 10.367188 -6.539062 10.578125 -5.714844 10.578125 -4.785156 C 10.578125 -3.855469 10.367188 -3.027344 9.9375 -2.304688 C 9.507812 -1.578125 8.90625 -1.015625 8.132812 -0.609375 C 7.359375 -0.203125 6.464844 0 5.453125 0 L 1.558594 0 Z M 5.398438 -0.875 C 6.238281 -0.875 6.972656 -1.042969 7.601562 -1.375 C 8.226562 -1.707031 8.714844 -2.167969 9.0625 -2.753906 C 9.410156 -3.34375 9.582031 -4.019531 9.582031 -4.785156 C 9.582031 -5.550781 9.410156 -6.226562 9.0625 -6.8125 C 8.714844 -7.402344 8.226562 -7.863281 7.601562 -8.195312 C 6.972656 -8.527344 6.238281 -8.691406 5.398438 -8.691406 L 2.570312 -8.691406 L 2.570312 -0.875 Z M 5.398438 -0.875 "/></g></g></g><g fill="#ffffff" fill-opacity="1"><g transform="translate(218.145972, 113.654673)"><g><path d="M 8.324219 -0.875 L 8.324219 0 L 1.558594 0 L 1.558594 -9.566406 L 8.117188 -9.566406 L 8.117188 -8.691406 L 2.570312 -8.691406 L 2.570312 -5.289062 L 7.519531 -5.289062 L 7.519531 -4.429688 L 2.570312 -4.429688 L 2.570312 -0.875 Z M 8.324219 -0.875 "/></g></g></g><g fill="#ffffff" fill-opacity="1"><g transform="translate(227.288756, 113.654673)"><g/></g></g><g fill="#ffffff" fill-opacity="1"><g transform="translate(230.869342, 113.654673)"><g><path d="M 5.140625 -9.566406 C 6.359375 -9.566406 7.316406 -9.277344 8.011719 -8.691406 C 8.703125 -8.109375 9.046875 -7.308594 9.046875 -6.289062 C 9.046875 -5.265625 8.703125 -4.46875 8.011719 -3.890625 C 7.316406 -3.308594 6.359375 -3.019531 5.140625 -3.019531 L 2.570312 -3.019531 L 2.570312 0 L 1.558594 0 L 1.558594 -9.566406 Z M 5.113281 -3.910156 C 6.058594 -3.910156 6.785156 -4.117188 7.285156 -4.53125 C 7.785156 -4.945312 8.039062 -5.53125 8.039062 -6.289062 C 8.039062 -7.0625 7.785156 -7.65625 7.285156 -8.070312 C 6.785156 -8.484375 6.058594 -8.691406 5.113281 -8.691406 L 2.570312 -8.691406 L 2.570312 -3.910156 Z M 5.113281 -3.910156 "/></g></g></g><g fill="#ffffff" fill-opacity="1"><g transform="translate(240.681784, 113.654673)"><g><path d="M 5.742188 0.0820312 C 4.792969 0.0820312 3.933594 -0.128906 3.164062 -0.554688 C 2.394531 -0.976562 1.792969 -1.558594 1.359375 -2.296875 C 0.925781 -3.035156 0.710938 -3.863281 0.710938 -4.785156 C 0.710938 -5.703125 0.925781 -6.535156 1.359375 -7.273438 C 1.792969 -8.011719 2.394531 -8.589844 3.164062 -9.015625 C 3.933594 -9.4375 4.792969 -9.648438 5.742188 -9.648438 C 6.6875 -9.648438 7.542969 -9.441406 8.304688 -9.019531 C 9.066406 -8.601562 9.664062 -8.019531 10.101562 -7.277344 C 10.539062 -6.535156 10.757812 -5.703125 10.757812 -4.785156 C 10.757812 -3.863281 10.539062 -3.03125 10.101562 -2.289062 C 9.664062 -1.546875 9.066406 -0.964844 8.304688 -0.546875 C 7.542969 -0.128906 6.6875 0.0820312 5.742188 0.0820312 Z M 5.742188 -0.820312 C 6.496094 -0.820312 7.179688 -0.992188 7.792969 -1.332031 C 8.402344 -1.675781 8.878906 -2.148438 9.226562 -2.753906 C 9.574219 -3.359375 9.746094 -4.035156 9.746094 -4.785156 C 9.746094 -5.53125 9.574219 -6.207031 9.226562 -6.8125 C 8.878906 -7.417969 8.402344 -7.894531 7.792969 -8.234375 C 7.179688 -8.578125 6.496094 -8.746094 5.742188 -8.746094 C 4.984375 -8.746094 4.296875 -8.578125 3.683594 -8.234375 C 3.070312 -7.894531 2.585938 -7.417969 2.234375 -6.8125 C 1.882812 -6.207031 1.707031 -5.53125 1.707031 -4.785156 C 1.707031 -4.035156 1.882812 -3.359375 2.234375 -2.753906 C 2.585938 -2.148438 3.070312 -1.675781 3.683594 -1.332031 C 4.296875 -0.992188 4.984375 -0.820312 5.742188 -0.820312 Z M 5.742188 -0.820312 "/></g></g></g><g fill="#ffffff" fill-opacity="1"><g transform="translate(252.147839, 113.654673)"><g><path d="M 4.195312 0.0820312 C 3.484375 0.0820312 2.804688 -0.03125 2.152344 -0.257812 C 1.5 -0.488281 0.996094 -0.789062 0.640625 -1.160156 L 1.039062 -1.941406 C 1.386719 -1.59375 1.84375 -1.316406 2.417969 -1.101562 C 2.992188 -0.886719 3.585938 -0.777344 4.195312 -0.777344 C 5.054688 -0.777344 5.695312 -0.9375 6.125 -1.25 C 6.550781 -1.566406 6.765625 -1.972656 6.765625 -2.472656 C 6.765625 -2.855469 6.648438 -3.160156 6.417969 -3.390625 C 6.183594 -3.617188 5.898438 -3.792969 5.5625 -3.917969 C 5.226562 -4.039062 4.757812 -4.171875 4.15625 -4.320312 C 3.433594 -4.5 2.859375 -4.675781 2.433594 -4.84375 C 2.003906 -5.015625 1.636719 -5.273438 1.332031 -5.617188 C 1.027344 -5.964844 0.875 -6.433594 0.875 -7.027344 C 0.875 -7.507812 1.003906 -7.949219 1.257812 -8.34375 C 1.511719 -8.742188 1.90625 -9.058594 2.433594 -9.292969 C 2.960938 -9.53125 3.617188 -9.648438 4.402344 -9.648438 C 4.949219 -9.648438 5.484375 -9.574219 6.007812 -9.425781 C 6.53125 -9.273438 6.984375 -9.066406 7.367188 -8.800781 L 7.027344 -7.996094 C 6.625 -8.261719 6.195312 -8.457031 5.742188 -8.589844 C 5.285156 -8.722656 4.839844 -8.789062 4.402344 -8.789062 C 3.5625 -8.789062 2.933594 -8.628906 2.507812 -8.304688 C 2.085938 -7.980469 1.871094 -7.5625 1.871094 -7.054688 C 1.871094 -6.671875 1.988281 -6.363281 2.222656 -6.128906 C 2.453125 -5.898438 2.746094 -5.71875 3.097656 -5.597656 C 3.445312 -5.472656 3.917969 -5.339844 4.511719 -5.195312 C 5.210938 -5.019531 5.78125 -4.851562 6.210938 -4.679688 C 6.644531 -4.511719 7.011719 -4.257812 7.3125 -3.917969 C 7.613281 -3.574219 7.765625 -3.113281 7.765625 -2.527344 C 7.765625 -2.046875 7.632812 -1.605469 7.375 -1.210938 C 7.113281 -0.8125 6.714844 -0.5 6.179688 -0.265625 C 5.640625 -0.0351562 4.980469 0.0820312 4.195312 0.0820312 Z M 4.195312 0.0820312 "/></g></g></g><g fill="#ffffff" fill-opacity="1"><g transform="translate(260.415987, 113.654673)"><g><path d="M 3.417969 -8.691406 L 0.0546875 -8.691406 L 0.0546875 -9.566406 L 7.792969 -9.566406 L 7.792969 -8.691406 L 4.429688 -8.691406 L 4.429688 0 L 3.417969 0 Z M 3.417969 -8.691406 "/></g></g></g><g fill="#ffffff" fill-opacity="1"><g transform="translate(268.123797, 113.654673)"><g><path d="M 5.742188 0.0820312 C 4.792969 0.0820312 3.933594 -0.128906 3.164062 -0.554688 C 2.394531 -0.976562 1.792969 -1.558594 1.359375 -2.296875 C 0.925781 -3.035156 0.710938 -3.863281 0.710938 -4.785156 C 0.710938 -5.703125 0.925781 -6.535156 1.359375 -7.273438 C 1.792969 -8.011719 2.394531 -8.589844 3.164062 -9.015625 C 3.933594 -9.4375 4.792969 -9.648438 5.742188 -9.648438 C 6.6875 -9.648438 7.542969 -9.441406 8.304688 -9.019531 C 9.066406 -8.601562 9.664062 -8.019531 10.101562 -7.277344 C 10.539062 -6.535156 10.757812 -5.703125 10.757812 -4.785156 C 10.757812 -3.863281 10.539062 -3.03125 10.101562 -2.289062 C 9.664062 -1.546875 9.066406 -0.964844 8.304688 -0.546875 C 7.542969 -0.128906 6.6875 0.0820312 5.742188 0.0820312 Z M 5.742188 -0.820312 C 6.496094 -0.820312 7.179688 -0.992188 7.792969 -1.332031 C 8.402344 -1.675781 8.878906 -2.148438 9.226562 -2.753906 C 9.574219 -3.359375 9.746094 -4.035156 9.746094 -4.785156 C 9.746094 -5.53125 9.574219 -6.207031 9.226562 -6.8125 C 8.878906 -7.417969 8.402344 -7.894531 7.792969 -8.234375 C 7.179688 -8.578125 6.496094 -8.746094 5.742188 -8.746094 C 4.984375 -8.746094 4.296875 -8.578125 3.683594 -8.234375 C 3.070312 -7.894531 2.585938 -7.417969 2.234375 -6.8125 C 1.882812 -6.207031 1.707031 -5.53125 1.707031 -4.785156 C 1.707031 -4.035156 1.882812 -3.359375 2.234375 -2.753906 C 2.585938 -2.148438 3.070312 -1.675781 3.683594 -1.332031 C 4.296875 -0.992188 4.984375 -0.820312 5.742188 -0.820312 Z M 5.742188 -0.820312 "/></g></g></g><g fill="#ffffff" fill-opacity="1"><g transform="translate(279.589851, 113.654673)"><g><path d="M 4.195312 0.0820312 C 3.484375 0.0820312 2.804688 -0.03125 2.152344 -0.257812 C 1.5 -0.488281 0.996094 -0.789062 0.640625 -1.160156 L 1.039062 -1.941406 C 1.386719 -1.59375 1.84375 -1.316406 2.417969 -1.101562 C 2.992188 -0.886719 3.585938 -0.777344 4.195312 -0.777344 C 5.054688 -0.777344 5.695312 -0.9375 6.125 -1.25 C 6.550781 -1.566406 6.765625 -1.972656 6.765625 -2.472656 C 6.765625 -2.855469 6.648438 -3.160156 6.417969 -3.390625 C 6.183594 -3.617188 5.898438 -3.792969 5.5625 -3.917969 C 5.226562 -4.039062 4.757812 -4.171875 4.15625 -4.320312 C 3.433594 -4.5 2.859375 -4.675781 2.433594 -4.84375 C 2.003906 -5.015625 1.636719 -5.273438 1.332031 -5.617188 C 1.027344 -5.964844 0.875 -6.433594 0.875 -7.027344 C 0.875 -7.507812 1.003906 -7.949219 1.257812 -8.34375 C 1.511719 -8.742188 1.90625 -9.058594 2.433594 -9.292969 C 2.960938 -9.53125 3.617188 -9.648438 4.402344 -9.648438 C 4.949219 -9.648438 5.484375 -9.574219 6.007812 -9.425781 C 6.53125 -9.273438 6.984375 -9.066406 7.367188 -8.800781 L 7.027344 -7.996094 C 6.625 -8.261719 6.195312 -8.457031 5.742188 -8.589844 C 5.285156 -8.722656 4.839844 -8.789062 4.402344 -8.789062 C 3.5625 -8.789062 2.933594 -8.628906 2.507812 -8.304688 C 2.085938 -7.980469 1.871094 -7.5625 1.871094 -7.054688 C 1.871094 -6.671875 1.988281 -6.363281 2.222656 -6.128906 C 2.453125 -5.898438 2.746094 -5.71875 3.097656 -5.597656 C 3.445312 -5.472656 3.917969 -5.339844 4.511719 -5.195312 C 5.210938 -5.019531 5.78125 -4.851562 6.210938 -4.679688 C 6.644531 -4.511719 7.011719 -4.257812 7.3125 -3.917969 C 7.613281 -3.574219 7.765625 -3.113281 7.765625 -2.527344 C 7.765625 -2.046875 7.632812 -1.605469 7.375 -1.210938 C 7.113281 -0.8125 6.714844 -0.5 6.179688 -0.265625 C 5.640625 -0.0351562 4.980469 0.0820312 4.195312 0.0820312 Z M 4.195312 0.0820312 "/></g></g></g><g fill="#ffffff" fill-opacity="1"><g transform="translate(287.994659, 113.654673)"><g/></g></g><g fill="#ffffff" fill-opacity="1"><g transform="translate(291.575245, 113.654673)"><g><path d="M 1.558594 -9.566406 L 5.453125 -9.566406 C 6.464844 -9.566406 7.359375 -9.367188 8.132812 -8.960938 C 8.90625 -8.554688 9.507812 -7.988281 9.9375 -7.265625 C 10.367188 -6.539062 10.578125 -5.714844 10.578125 -4.785156 C 10.578125 -3.855469 10.367188 -3.027344 9.9375 -2.304688 C 9.507812 -1.578125 8.90625 -1.015625 8.132812 -0.609375 C 7.359375 -0.203125 6.464844 0 5.453125 0 L 1.558594 0 Z M 5.398438 -0.875 C 6.238281 -0.875 6.972656 -1.042969 7.601562 -1.375 C 8.226562 -1.707031 8.714844 -2.167969 9.0625 -2.753906 C 9.410156 -3.34375 9.582031 -4.019531 9.582031 -4.785156 C 9.582031 -5.550781 9.410156 -6.226562 9.0625 -6.8125 C 8.714844 -7.402344 8.226562 -7.863281 7.601562 -8.195312 C 6.972656 -8.527344 6.238281 -8.691406 5.398438 -8.691406 L 2.570312 -8.691406 L 2.570312 -0.875 Z M 5.398438 -0.875 "/></g></g></g><g fill="#ffffff" fill-opacity="1"><g transform="translate(302.863662, 113.654673)"><g><path d="M 8.324219 -0.875 L 8.324219 0 L 1.558594 0 L 1.558594 -9.566406 L 8.117188 -9.566406 L 8.117188 -8.691406 L 2.570312 -8.691406 L 2.570312 -5.289062 L 7.519531 -5.289062 L 7.519531 -4.429688 L 2.570312 -4.429688 L 2.570312 -0.875 Z M 8.324219 -0.875 "/></g></g></g><g fill="#ffffff" fill-opacity="1"><g transform="translate(312.006446, 113.654673)"><g/></g></g><g fill="#ffffff" fill-opacity="1"><g transform="translate(315.587032, 113.654673)"><g><path d="M 4.195312 0.0820312 C 3.484375 0.0820312 2.804688 -0.03125 2.152344 -0.257812 C 1.5 -0.488281 0.996094 -0.789062 0.640625 -1.160156 L 1.039062 -1.941406 C 1.386719 -1.59375 1.84375 -1.316406 2.417969 -1.101562 C 2.992188 -0.886719 3.585938 -0.777344 4.195312 -0.777344 C 5.054688 -0.777344 5.695312 -0.9375 6.125 -1.25 C 6.550781 -1.566406 6.765625 -1.972656 6.765625 -2.472656 C 6.765625 -2.855469 6.648438 -3.160156 6.417969 -3.390625 C 6.183594 -3.617188 5.898438 -3.792969 5.5625 -3.917969 C 5.226562 -4.039062 4.757812 -4.171875 4.15625 -4.320312 C 3.433594 -4.5 2.859375 -4.675781 2.433594 -4.84375 C 2.003906 -5.015625 1.636719 -5.273438 1.332031 -5.617188 C 1.027344 -5.964844 0.875 -6.433594 0.875 -7.027344 C 0.875 -7.507812 1.003906 -7.949219 1.257812 -8.34375 C 1.511719 -8.742188 1.90625 -9.058594 2.433594 -9.292969 C 2.960938 -9.53125 3.617188 -9.648438 4.402344 -9.648438 C 4.949219 -9.648438 5.484375 -9.574219 6.007812 -9.425781 C 6.53125 -9.273438 6.984375 -9.066406 7.367188 -8.800781 L 7.027344 -7.996094 C 6.625 -8.261719 6.195312 -8.457031 5.742188 -8.589844 C 5.285156 -8.722656 4.839844 -8.789062 4.402344 -8.789062 C 3.5625 -8.789062 2.933594 -8.628906 2.507812 -8.304688 C 2.085938 -7.980469 1.871094 -7.5625 1.871094 -7.054688 C 1.871094 -6.671875 1.988281 -6.363281 2.222656 -6.128906 C 2.453125 -5.898438 2.746094 -5.71875 3.097656 -5.597656 C 3.445312 -5.472656 3.917969 -5.339844 4.511719 -5.195312 C 5.210938 -5.019531 5.78125 -4.851562 6.210938 -4.679688 C 6.644531 -4.511719 7.011719 -4.257812 7.3125 -3.917969 C 7.613281 -3.574219 7.765625 -3.113281 7.765625 -2.527344 C 7.765625 -2.046875 7.632812 -1.605469 7.375 -1.210938 C 7.113281 -0.8125 6.714844 -0.5 6.179688 -0.265625 C 5.640625 -0.0351562 4.980469 0.0820312 4.195312 0.0820312 Z M 4.195312 0.0820312 "/></g></g></g><g fill="#ffffff" fill-opacity="1"><g transform="translate(323.99184, 113.654673)"><g><path d="M 7.558594 -2.554688 L 2.226562 -2.554688 L 1.078125 0 L 0.0273438 0 L 4.402344 -9.566406 L 5.398438 -9.566406 L 9.773438 0 L 8.707031 0 Z M 7.191406 -3.375 L 4.894531 -8.515625 L 2.597656 -3.375 Z M 7.191406 -3.375 "/></g></g></g><g fill="#ffffff" fill-opacity="1"><g transform="translate(333.58558, 113.654673)"><g><path d="M 5.414062 0.0820312 C 4.171875 0.0820312 3.207031 -0.273438 2.515625 -0.984375 C 1.824219 -1.695312 1.476562 -2.730469 1.476562 -4.085938 L 1.476562 -9.566406 L 2.488281 -9.566406 L 2.488281 -4.128906 C 2.488281 -3.015625 2.738281 -2.1875 3.238281 -1.640625 C 3.742188 -1.09375 4.464844 -0.820312 5.414062 -0.820312 C 6.371094 -0.820312 7.097656 -1.09375 7.601562 -1.640625 C 8.101562 -2.1875 8.351562 -3.015625 8.351562 -4.128906 L 8.351562 -9.566406 L 9.335938 -9.566406 L 9.335938 -4.085938 C 9.335938 -2.730469 8.992188 -1.695312 8.304688 -0.984375 C 7.617188 -0.273438 6.652344 0.0820312 5.414062 0.0820312 Z M 6.398438 -12.042969 L 7.695312 -12.042969 L 5.480469 -10.347656 L 4.523438 -10.347656 Z M 6.398438 -12.042969 "/></g></g></g><g fill="#ffffff" fill-opacity="1"><g transform="translate(344.409338, 113.654673)"><g><path d="M 1.558594 -9.566406 L 5.453125 -9.566406 C 6.464844 -9.566406 7.359375 -9.367188 8.132812 -8.960938 C 8.90625 -8.554688 9.507812 -7.988281 9.9375 -7.265625 C 10.367188 -6.539062 10.578125 -5.714844 10.578125 -4.785156 C 10.578125 -3.855469 10.367188 -3.027344 9.9375 -2.304688 C 9.507812 -1.578125 8.90625 -1.015625 8.132812 -0.609375 C 7.359375 -0.203125 6.464844 0 5.453125 0 L 1.558594 0 Z M 5.398438 -0.875 C 6.238281 -0.875 6.972656 -1.042969 7.601562 -1.375 C 8.226562 -1.707031 8.714844 -2.167969 9.0625 -2.753906 C 9.410156 -3.34375 9.582031 -4.019531 9.582031 -4.785156 C 9.582031 -5.550781 9.410156 -6.226562 9.0625 -6.8125 C 8.714844 -7.402344 8.226562 -7.863281 7.601562 -8.195312 C 6.972656 -8.527344 6.238281 -8.691406 5.398438 -8.691406 L 2.570312 -8.691406 L 2.570312 -0.875 Z M 5.398438 -0.875 "/></g></g></g><g clip-path="url(#4018391054)"><g fill="#ffffff" fill-opacity="1"><g transform="translate(355.697734, 113.654673)"><g><path d="M 8.324219 -0.875 L 8.324219 0 L 1.558594 0 L 1.558594 -9.566406 L 8.117188 -9.566406 L 8.117188 -8.691406 L 2.570312 -8.691406 L 2.570312 -5.289062 L 7.519531 -5.289062 L 7.519531 -4.429688 L 2.570312 -4.429688 L 2.570312 -0.875 Z M 8.324219 -0.875 "/></g></g></g></g><path stroke-linecap="round" transform="matrix(1.590497, 0, 0, 1.590497, 10.331973, 95.943235)" fill="none" stroke-linejoin="miter" d="M 0.999626 1.000895 L 216.355869 1.000895 " stroke="#ffffff" stroke-width="2" stroke-opacity="1" stroke-miterlimit="4"/></svg>