<svg xmlns="http://www.w3.org/2000/svg" xmlns:xlink="http://www.w3.org/1999/xlink" width="500" zoomAndPan="magnify" viewBox="0 0 375 374.999991" height="500" preserveAspectRatio="xMidYMid meet" version="1.0"><defs><clipPath id="79586b849c"><path d="M 229.789062 80.335938 L 301.777344 80.335938 L 301.777344 148.496094 L 229.789062 148.496094 Z M 229.789062 80.335938 " clip-rule="nonzero"/></clipPath></defs><path fill="#00df86" d="M 168.972656 105.136719 C 172.644531 97.96875 175.222656 92.261719 178.375 86.894531 C 190.664062 65.976562 207.363281 50.355469 232.109375 46.316406 C 252.28125 43.027344 271.804688 46.445312 289.992188 56.074219 C 314.007812 68.789062 327.816406 89.238281 333.273438 115.378906 C 337.628906 136.214844 335.257812 156.785156 328.574219 176.894531 C 327.824219 179.15625 326.808594 181.332031 325.785156 183.886719 C 296.390625 183.886719 267.195312 183.886719 236.9375 183.886719 C 234.851562 180.015625 232.382812 175.613281 230.078125 171.125 C 226.761719 164.691406 223.457031 158.257812 220.363281 151.722656 C 217.726562 146.160156 214.085938 141.714844 207.480469 142.140625 C 201.050781 142.550781 197.695312 146.898438 195.546875 152.878906 C 189.640625 169.324219 183.3125 185.628906 177.136719 201.976562 C 176.613281 203.371094 175.984375 204.734375 174.921875 207.257812 C 173.652344 204.820312 172.574219 203.28125 172.007812 201.566406 C 164.570312 179.269531 157.207031 156.953125 149.824219 134.640625 C 149.351562 133.207031 149.015625 131.726562 148.457031 130.335938 C 146.386719 125.160156 142.804688 121.578125 137.027344 121.53125 C 131.386719 121.488281 127.386719 124.453125 125.238281 129.777344 C 119.828125 143.195312 114.402344 156.609375 108.953125 170.011719 C 107.140625 174.464844 105.21875 178.878906 102.921875 184.324219 C 99.523438 184.324219 95.972656 184.320312 92.429688 184.324219 C 83.679688 184.347656 74.921875 184.117188 66.183594 184.472656 C 59.21875 184.757812 54.859375 189.503906 54.699219 196.007812 C 54.546875 202.160156 58.359375 206.992188 64.558594 208.25 C 66.3125 208.605469 68.160156 208.554688 69.960938 208.5625 C 82.933594 208.582031 95.914062 208.390625 108.882812 208.636719 C 116.597656 208.78125 121.296875 205.414062 123.996094 198.304688 C 127.402344 189.320312 131.183594 180.476562 135.488281 169.882812 C 137.371094 175.226562 138.769531 178.984375 140.027344 182.792969 C 147.222656 204.535156 154.402344 226.277344 161.535156 248.042969 C 163.363281 253.621094 166.324219 257.738281 172.792969 258.097656 C 179.136719 258.449219 183.039062 255.984375 185.710938 249.074219 C 190.699219 236.144531 195.457031 223.121094 200.3125 210.136719 C 203.261719 202.25 206.226562 194.371094 209.679688 185.148438 C 212.113281 189.90625 214.316406 193.378906 215.734375 197.152344 C 218.953125 205.699219 224.800781 208.785156 233.902344 208.714844 C 275.238281 208.394531 316.574219 208.566406 357.914062 208.578125 C 360.925781 208.578125 363.980469 208.410156 366.953125 208.800781 C 371.609375 209.414062 374.878906 213.125 374.914062 217.265625 C 374.945312 221.359375 371.707031 225.140625 367.097656 225.925781 C 364.742188 226.320312 362.289062 226.152344 359.875 226.15625 C 342.675781 226.175781 325.480469 226.246094 308.28125 226.140625 C 304.417969 226.113281 301.582031 226.980469 298.992188 230.289062 C 271.675781 265.203125 237.371094 292.089844 200.125 315.492188 C 191.703125 320.78125 182.925781 325.503906 174.375 330.59375 C 170.988281 332.609375 167.921875 332.882812 164.285156 330.855469 C 118.375 305.273438 75.964844 275.257812 42.324219 234.238281 C 24.714844 212.769531 11.113281 189.078125 5.5 161.539062 C 0.015625 134.617188 2.214844 108.5 17.144531 84.804688 C 32.347656 60.675781 55.347656 48.675781 83.25 45.738281 C 117.859375 42.09375 142.472656 57.574219 159.75 86.5625 C 161.445312 89.410156 162.867188 92.421875 164.339844 95.386719 C 165.671875 98.046875 166.902344 100.757812 168.972656 105.136719 Z M 168.972656 105.136719 " fill-opacity="1" fill-rule="nonzero"/><g clip-path="url(#79586b849c)"><path fill="#00df86" d="M 229.789062 80.335938 L 301.675781 80.335938 L 301.675781 148.496094 L 229.789062 148.496094 Z M 229.789062 80.335938 " fill-opacity="1" fill-rule="nonzero"/></g></svg>