<svg width="41" height="33" viewBox="0 0 41 33" fill="none" xmlns="http://www.w3.org/2000/svg">
<path d="M4.83317 32.1667C3.75609 32.1667 2.83404 31.7832 2.06702 31.0161C1.30001 30.2491 0.916504 29.3271 0.916504 28.25V4.74999C0.916504 3.67291 1.30001 2.75086 2.06702 1.98385C2.83404 1.21684 3.75609 0.833328 4.83317 0.833328H36.1665C37.2436 0.833328 38.1656 1.21684 38.9326 1.98385C39.6997 2.75086 40.0832 3.67291 40.0832 4.74999V28.25C40.0832 29.3271 39.6997 30.2491 38.9326 31.0161C38.1656 31.7832 37.2436 32.1667 36.1665 32.1667H4.83317ZM20.4998 18.4583L4.83317 8.66666V28.25H36.1665V8.66666L20.4998 18.4583ZM20.4998 14.5417L36.1665 4.74999H4.83317L20.4998 14.5417ZM4.83317 8.66666V4.74999V28.25V8.66666Z" fill="#646464"/>
</svg>
