<svg width="46" height="46" viewBox="0 0 46 46" fill="none" xmlns="http://www.w3.org/2000/svg">
<path d="M13.4167 21.0833V13.4167C13.4167 10.875 14.4263 8.43745 16.2236 6.64022C18.0208 4.843 20.4583 3.83333 23 3.83333C25.5417 3.83333 27.9792 4.843 29.7764 6.64022C31.5737 8.43745 32.5833 10.875 32.5833 13.4167V21.0833M9.58333 21.0833H36.4167C38.5338 21.0833 40.25 22.7996 40.25 24.9167V38.3333C40.25 40.4504 38.5338 42.1667 36.4167 42.1667H9.58333C7.46624 42.1667 5.75 40.4504 5.75 38.3333V24.9167C5.75 22.7996 7.46624 21.0833 9.58333 21.0833Z" stroke="#646464" stroke-width="4" stroke-linecap="round" stroke-linejoin="round"/>
</svg>
