<svg width="64" height="64" viewBox="0 0 64 64" fill="none" xmlns="http://www.w3.org/2000/svg">
<path d="M55.5733 12.2933C54.2113 10.9307 52.5942 9.84971 50.8143 9.11221C49.0344 8.37471 47.1266 7.99512 45.2 7.99512C43.2734 7.99512 41.3656 8.37471 39.5857 9.11221C37.8058 9.84971 36.1887 10.9307 34.8267 12.2933L32 15.12L29.1733 12.2933C26.4221 9.54214 22.6907 7.99654 18.8 7.99654C14.9092 7.99654 11.1778 9.54214 8.42666 12.2933C5.67548 15.0445 4.12988 18.7759 4.12988 22.6667C4.12988 26.5574 5.67548 30.2888 8.42666 33.04L32 56.6133L55.5733 33.04C56.936 31.678 58.0169 30.0608 58.7544 28.2809C59.4919 26.501 59.8715 24.5933 59.8715 22.6667C59.8715 20.74 59.4919 18.8323 58.7544 17.0524C58.0169 15.2725 56.936 13.6553 55.5733 12.2933Z" stroke="#4BC997" stroke-width="4" stroke-linecap="round" stroke-linejoin="round"/>
</svg>
