<svg xmlns="http://www.w3.org/2000/svg" xmlns:xlink="http://www.w3.org/1999/xlink" width="500" zoomAndPan="magnify" viewBox="0 0 375 374.999991" height="500" preserveAspectRatio="xMidYMid meet" version="1.0"><defs><clipPath id="a8865a9d56"><path d="M 44.949219 0.453125 L 90.050781 0.453125 L 90.050781 134.851562 L 44.949219 134.851562 Z M 44.949219 0.453125 " clip-rule="nonzero"/></clipPath><clipPath id="bc3e0c97c3"><path d="M 0.949219 0.453125 L 46.050781 0.453125 L 46.050781 134.851562 L 0.949219 134.851562 Z M 0.949219 0.453125 " clip-rule="nonzero"/></clipPath><clipPath id="150e1c5366"><rect x="0" width="47" y="0" height="135"/></clipPath><clipPath id="1e7ccd252d"><path d="M 0.304688 45.09375 L 134.703125 45.09375 L 134.703125 90.199219 L 0.304688 90.199219 Z M 0.304688 45.09375 " clip-rule="nonzero"/></clipPath><clipPath id="aeaf40f77b"><path d="M 0.304688 0.09375 L 134.703125 0.09375 L 134.703125 45.199219 L 0.304688 45.199219 Z M 0.304688 0.09375 " clip-rule="nonzero"/></clipPath><clipPath id="2b85a106b6"><rect x="0" width="135" y="0" height="46"/></clipPath><clipPath id="4b75f06f5f"><rect x="0" width="135" y="0" height="135"/></clipPath></defs><path fill="#ec91a3" d="M 177.546875 44.292969 C 52.269531 -4.671875 -12.078125 58.917969 31.988281 191.058594 C 39.464844 213.480469 91.664062 380.042969 128.125 368.398438 C 161.550781 357.710938 166.246094 290.472656 186.390625 275.277344 C 215.925781 280.488281 218.820312 386.859375 258.566406 367.558594 C 304.722656 345.144531 342.851562 203.941406 352.320312 159.191406 C 361.289062 116.746094 363.609375 26.878906 301.9375 21.886719 C 257.859375 18.3125 220.179688 45.378906 177.546875 44.292969 Z M 177.546875 44.292969 " fill-opacity="1" fill-rule="nonzero"/><path fill="#ec91a3" d="M 177.546875 44.292969 C 52.269531 -4.671875 -12.078125 58.917969 31.988281 191.058594 C 39.464844 213.480469 91.664062 380.042969 128.125 368.398438 C 161.550781 357.710938 166.246094 290.472656 186.390625 275.277344 C 215.925781 280.488281 218.820312 386.859375 258.566406 367.558594 C 304.722656 345.144531 342.851562 203.941406 352.320312 159.191406 C 361.289062 116.746094 363.609375 26.878906 301.9375 21.886719 C 257.859375 18.3125 220.179688 45.378906 177.546875 44.292969 Z M 177.546875 44.292969 " fill-opacity="1" fill-rule="nonzero"/><g transform="matrix(1, 0, 0, 1, 120, 87)"><g clip-path="url(#4b75f06f5f)"><g clip-path="url(#a8865a9d56)"><g transform="matrix(1, 0, 0, 1, 44, 0)"><g clip-path="url(#150e1c5366)"><g clip-path="url(#bc3e0c97c3)"><path fill="#000000" d="M 0.949219 0.453125 L 46.050781 0.453125 L 46.050781 134.886719 L 0.949219 134.886719 Z M 0.949219 0.453125 " fill-opacity="1" fill-rule="nonzero"/></g></g></g></g><g clip-path="url(#1e7ccd252d)"><g transform="matrix(1, 0, 0, 1, 0, 45)"><g clip-path="url(#2b85a106b6)"><g clip-path="url(#aeaf40f77b)"><path fill="#000000" d="M 0.304688 45.199219 L 0.304688 0.09375 L 134.734375 0.09375 L 134.734375 45.199219 Z M 0.304688 45.199219 " fill-opacity="1" fill-rule="nonzero"/></g></g></g></g></g></g></svg>