<svg xmlns="http://www.w3.org/2000/svg" xmlns:xlink="http://www.w3.org/1999/xlink" width="488" zoomAndPan="magnify" viewBox="0 0 366 122.249994" height="163" preserveAspectRatio="xMidYMid meet" version="1.0"><defs><g/><clipPath id="d3a1a505e8"><rect x="0" width="289" y="0" height="99"/></clipPath><clipPath id="baf77ce810"><path d="M 315.007812 46 L 338.859375 46 L 338.859375 55 L 315.007812 55 Z M 315.007812 46 " clip-rule="nonzero"/></clipPath><clipPath id="9433289514"><path d="M 322 38.5 L 332 38.5 L 332 62.355469 L 322 62.355469 Z M 322 38.5 " clip-rule="nonzero"/></clipPath></defs><g transform="matrix(1, 0, 0, 1, 7, 8)"><g clip-path="url(#d3a1a505e8)"><g fill="#ffffff" fill-opacity="1"><g transform="translate(1.847758, 77.773861)"><g><path d="M 44 -12.125 L 17.71875 -12.125 L 12.703125 0 L -0.734375 0 L 24.5 -56.609375 L 37.4375 -56.609375 L 62.765625 0 L 49.015625 0 Z M 39.875 -22.078125 L 30.890625 -43.75 L 21.921875 -22.078125 Z M 39.875 -22.078125 "/></g></g></g><g fill="#ffffff" fill-opacity="1"><g transform="translate(58.289492, 77.773861)"><g><path d="M 44.96875 -29.203125 L 56.9375 -29.203125 L 56.9375 -6.234375 C 53.863281 -3.910156 50.300781 -2.128906 46.25 -0.890625 C 42.207031 0.347656 38.140625 0.96875 34.046875 0.96875 C 28.171875 0.96875 22.882812 -0.28125 18.1875 -2.78125 C 13.5 -5.289062 9.820312 -8.769531 7.15625 -13.21875 C 4.488281 -17.664062 3.15625 -22.695312 3.15625 -28.3125 C 3.15625 -33.914062 4.488281 -38.941406 7.15625 -43.390625 C 9.820312 -47.835938 13.523438 -51.3125 18.265625 -53.8125 C 23.015625 -56.320312 28.359375 -57.578125 34.296875 -57.578125 C 39.253906 -57.578125 43.753906 -56.738281 47.796875 -55.0625 C 51.835938 -53.394531 55.234375 -50.972656 57.984375 -47.796875 L 49.578125 -40.03125 C 45.535156 -44.289062 40.65625 -46.421875 34.9375 -46.421875 C 31.320312 -46.421875 28.113281 -45.664062 25.3125 -44.15625 C 22.507812 -42.644531 20.328125 -40.515625 18.765625 -37.765625 C 17.203125 -35.015625 16.421875 -31.863281 16.421875 -28.3125 C 16.421875 -24.800781 17.203125 -21.671875 18.765625 -18.921875 C 20.328125 -16.171875 22.492188 -14.023438 25.265625 -12.484375 C 28.046875 -10.953125 31.21875 -10.1875 34.78125 -10.1875 C 38.550781 -10.1875 41.945312 -10.992188 44.96875 -12.609375 Z M 44.96875 -29.203125 "/></g></g></g><g fill="#ffffff" fill-opacity="1"><g transform="translate(115.135535, 77.773861)"><g><path d="M 50.546875 -10.515625 L 50.546875 0 L 6.71875 0 L 6.71875 -56.609375 L 49.5 -56.609375 L 49.5 -46.09375 L 19.734375 -46.09375 L 19.734375 -33.8125 L 46.015625 -33.8125 L 46.015625 -23.609375 L 19.734375 -23.609375 L 19.734375 -10.515625 Z M 50.546875 -10.515625 "/></g></g></g><g fill="#ffffff" fill-opacity="1"><g transform="translate(163.895274, 77.773861)"><g><path d="M 58.640625 -56.609375 L 58.640625 0 L 47.875 0 L 19.65625 -34.375 L 19.65625 0 L 6.71875 0 L 6.71875 -56.609375 L 17.546875 -56.609375 L 45.6875 -22.234375 L 45.6875 -56.609375 Z M 58.640625 -56.609375 "/></g></g></g><g fill="#ffffff" fill-opacity="1"><g transform="translate(223.733271, 77.773861)"><g><path d="M 6.71875 -56.609375 L 32.4375 -56.609375 C 38.582031 -56.609375 44.007812 -55.4375 48.71875 -53.09375 C 53.4375 -50.75 57.101562 -47.445312 59.71875 -43.1875 C 62.34375 -38.925781 63.65625 -33.96875 63.65625 -28.3125 C 63.65625 -22.644531 62.34375 -17.679688 59.71875 -13.421875 C 57.101562 -9.160156 53.4375 -5.859375 48.71875 -3.515625 C 44.007812 -1.171875 38.582031 0 32.4375 0 L 6.71875 0 Z M 31.78125 -10.75 C 37.445312 -10.75 41.960938 -12.328125 45.328125 -15.484375 C 48.703125 -18.640625 50.390625 -22.914062 50.390625 -28.3125 C 50.390625 -33.695312 48.703125 -37.96875 45.328125 -41.125 C 41.960938 -44.28125 37.445312 -45.859375 31.78125 -45.859375 L 19.8125 -45.859375 L 19.8125 -10.75 Z M 31.78125 -10.75 "/></g></g></g></g></g><path fill="#ec91a3" d="M 324.847656 32.140625 C 303.25 23.699219 292.160156 34.660156 299.753906 57.441406 C 301.042969 61.308594 310.042969 90.019531 316.328125 88.015625 C 322.089844 86.171875 322.898438 74.582031 326.371094 71.960938 C 331.464844 72.859375 331.964844 91.195312 338.816406 87.871094 C 346.773438 84.003906 353.34375 59.664062 354.976562 51.949219 C 356.523438 44.632812 356.925781 29.136719 346.292969 28.277344 C 338.695312 27.660156 332.199219 32.328125 324.847656 32.140625 Z M 324.847656 32.140625 " fill-opacity="1" fill-rule="nonzero"/><g clip-path="url(#baf77ce810)"><path fill="#000000" d="M 338.875 46.210938 L 338.875 54.664062 L 315.007812 54.664062 L 315.007812 46.210938 Z M 338.875 46.210938 " fill-opacity="1" fill-rule="nonzero"/></g><g clip-path="url(#9433289514)"><path fill="#000000" d="M 322.714844 38.5 L 331.167969 38.5 L 331.167969 62.371094 L 322.714844 62.371094 Z M 322.714844 38.5 " fill-opacity="1" fill-rule="nonzero"/></g></svg>