<svg width="47" height="72" viewBox="0 0 47 72" fill="none" xmlns="http://www.w3.org/2000/svg">
<g clip-path="url(#clip0_513_36)">
<path d="M16.4504 6.75C16.4504 4.95979 17.1932 3.2429 18.5153 1.97703C19.8374 0.711159 21.6306 0 23.5004 0C25.3702 0 27.1634 0.711159 28.4855 1.97703C29.8076 3.2429 30.5504 4.95979 30.5504 6.75C30.5504 8.54021 29.8076 10.2571 28.4855 11.523C27.1634 12.7888 25.3702 13.5 23.5004 13.5C21.6306 13.5 19.8374 12.7888 18.5153 11.523C17.1932 10.2571 16.4504 8.54021 16.4504 6.75ZM22.3254 49.5V67.5C22.3254 69.9891 20.2251 72 17.6254 72C15.0257 72 12.9254 69.9891 12.9254 67.5V36.1266L8.72478 42.8203C7.38822 44.9437 4.49478 45.6328 2.27697 44.3531C0.0591572 43.0734 -0.66053 40.3031 0.676032 38.1797L9.23885 24.5391C11.7945 20.475 16.377 17.9859 21.3267 17.9859H25.6888C30.6385 17.9859 35.221 20.475 37.7767 24.5391L46.3395 38.1797C47.676 40.3031 46.9563 43.0734 44.7385 44.3531C42.5207 45.6328 39.6273 44.9437 38.2907 42.8203L34.0754 36.1266V67.5C34.0754 69.9891 31.9751 72 29.3754 72C26.7757 72 24.6754 69.9891 24.6754 67.5V49.5H22.3254Z" fill="white"/>
</g>
<defs>
<clipPath id="clip0_513_36">
<rect width="47" height="72" fill="white"/>
</clipPath>
</defs>
</svg>
