<svg width="64" height="72" viewBox="0 0 64 72" fill="none" xmlns="http://www.w3.org/2000/svg">
<g clip-path="url(#clip0_513_41)">
<path d="M32.0007 0C29.4721 0 27.4293 2.01094 27.4293 4.5V7.2C17.0007 9.28125 9.14357 18.3656 9.14357 29.25V32.8219C9.14357 39.2062 6.92928 45.4078 2.88643 50.3859L0.757855 53.0156C-0.0707168 54.0281 -0.22786 55.4203 0.343569 56.5875C0.914997 57.7547 2.115 58.5 3.42928 58.5H60.5721C61.8864 58.5 63.0864 57.7547 63.6579 56.5875C64.2293 55.4203 64.0721 54.0281 63.2436 53.0156L61.115 50.4C57.0721 45.4078 54.8578 39.2062 54.8578 32.8219V29.25C54.8578 18.3656 47.0007 9.28125 36.5721 7.2V4.5C36.5721 2.01094 34.5293 0 32.0007 0ZM32.0007 13.5C40.8436 13.5 48.0007 20.5453 48.0007 29.25V32.8219C48.0007 39.5578 49.9864 46.125 53.6721 51.75H10.3293C14.015 46.125 16.0007 39.5578 16.0007 32.8219V29.25C16.0007 20.5453 23.1579 13.5 32.0007 13.5ZM41.1436 63H32.0007H22.8579C22.8579 65.3906 23.815 67.6828 25.5293 69.3703C27.2436 71.0578 29.5721 72 32.0007 72C34.4293 72 36.7579 71.0578 38.4721 69.3703C40.1864 67.6828 41.1436 65.3906 41.1436 63Z" fill="white"/>
</g>
<defs>
<clipPath id="clip0_513_41">
<rect width="64" height="72" fill="white"/>
</clipPath>
</defs>
</svg>
